<svg xmlns="http://www.w3.org/2000/svg" width="37" height="37" viewBox="0 0 37 37">
    <g fill="none" fill-rule="evenodd">
        <g fill="#000" fill-rule="nonzero">
            <g>
                <g transform="translate(-1451 -632) translate(1451 632)">
                    <path d="M25.344 0H11.52C5.159 0 0 5.159 0 11.52v13.824c0 6.361 5.159 11.52 11.52 11.52h13.824c6.361 0 11.52-5.159 11.52-11.52V11.52C36.864 5.159 31.705 0 25.344 0zm8.064 25.344c0 4.447-3.617 8.064-8.064 8.064H11.52c-4.447 0-8.064-3.617-8.064-8.064V11.52c0-4.447 3.617-8.064 8.064-8.064h13.824c4.447 0 8.064 3.617 8.064 8.064v13.824z"/>
                    <path d="M18.432 9.216c-5.09 0-9.216 4.126-9.216 9.216 0 5.09 4.126 9.216 9.216 9.216 5.09 0 9.216-4.126 9.216-9.216 0-5.09-4.126-9.216-9.216-9.216zm0 14.976c-3.175 0-5.76-2.585-5.76-5.76 0-3.177 2.585-5.76 5.76-5.76s5.76 2.583 5.76 5.76c0 3.175-2.585 5.76-5.76 5.76z"/>
                    <circle cx="28.339" cy="8.525" r="1.228"/>
                </g>
            </g>
        </g>
    </g>
</svg>
