<svg xmlns="http://www.w3.org/2000/svg" width="40" height="25" viewBox="0 0 40 25">
    <g fill="none" fill-rule="evenodd">
        <g fill="#FFF" fill-rule="nonzero">
            <g>
                <g>
                    <path d="M16.397 11.336c.827-.416 1.453-.879 1.881-1.38.762-.901 1.138-2.097 1.138-3.58 0-1.442-.376-2.675-1.128-3.709C17.032.983 14.908.121 11.903.077H0v24.296h11.098c1.25 0 2.41-.107 3.48-.326 1.072-.222 1.999-.628 2.783-1.221.698-.516 1.28-1.156 1.744-1.91.732-1.142 1.099-2.435 1.099-3.875 0-1.395-.322-2.583-.96-3.56-.645-.976-1.591-1.691-2.847-2.145zM4.91 4.296h5.361c1.179 0 2.15.127 2.912.379.882.366 1.323 1.111 1.323 2.247 0 1.019-.336 1.731-1.001 2.133-.67.4-1.54.602-2.606.602H4.91v-5.36zm8.478 15.433c-.593.287-1.428.429-2.496.429H4.91v-6.48h6.064c1.056.008 1.878.147 2.466.409 1.046.473 1.567 1.34 1.567 2.608 0 1.495-.538 2.501-1.62 3.034zM24.5 1.4H35.055V4.4239999999999995H24.5zM38.904 12.815c-.219-1.408-.702-2.646-1.455-3.715-.824-1.21-1.87-2.097-3.143-2.658-1.268-.563-2.696-.844-4.285-.842-2.668 0-4.836.835-6.512 2.491C21.837 9.753 21 12.141 21 15.256c0 3.32.924 5.72 2.783 7.192 1.85 1.475 3.988 2.21 6.415 2.21 2.937 0 5.221-.875 6.853-2.618 1.044-1.102 1.634-2.185 1.764-3.249h-4.863c-.282.526-.608.937-.982 1.236-.677.548-1.56.822-2.64.822-1.03 0-1.901-.227-2.629-.678-1.2-.722-1.828-1.988-1.908-3.789h13.27c.02-1.552-.03-2.745-.159-3.567zm-12.991.465c.174-1.168.598-2.095 1.27-2.78.673-.682 1.624-1.026 2.843-1.029 1.123 0 2.062.322 2.827.967.755.65 1.181 1.594 1.268 2.842h-8.208z" transform="translate(-127 -1111) translate(127 1111)"/>
                </g>
            </g>
        </g>
    </g>
</svg>
