<svg xmlns="http://www.w3.org/2000/svg" width="227" height="52" viewBox="0 0 227 52">
    <g fill="none" fill-rule="evenodd">
        <g fill-rule="nonzero">
            <g>
                <path fill="#000" d="M10.954 49.862V30.106c0-1.3.257-2.464.772-3.495.516-1.03 1.21-1.837 2.084-2.419.873-.582 1.892-.874 3.057-.874 1.658 0 2.957.616 3.898 1.848.94 1.232 1.411 2.924 1.411 5.074v19.622c0 .223.18.404.403.404h10.147c.223 0 .404-.18.404-.404V30.106c0-1.3.257-2.464.772-3.495.516-1.03 1.21-1.837 2.084-2.419.873-.582 1.892-.874 3.057-.874 1.658 0 2.957.616 3.898 1.848.94 1.232 1.411 2.924 1.411 5.074v19.622c0 .223.18.404.403.404h10.147c.223 0 .404-.18.404-.404V28.896c0-3.18-.516-5.925-1.546-8.232-1.03-2.307-2.509-4.088-4.435-5.342-1.927-1.255-4.189-1.882-6.787-1.882-2.599 0-4.906.605-6.922 1.814-2.016 1.21-3.584 2.778-4.704 4.704-1.03-2.06-2.453-3.662-4.267-4.804-1.815-1.143-3.887-1.714-6.216-1.714-2.195 0-4.167.515-5.914 1.546-1.747 1.03-3.113 2.419-4.099 4.166v-4.3c0-.223-.18-.404-.403-.404H.403c-.222 0-.403.18-.403.403v35.011c0 .223.18.404.403.404H10.55c.223 0 .404-.18.404-.404zm66.93 1.412c2.734 0 5.276-.482 7.628-1.445 2.352-.963 4.39-2.296 6.115-3.999 1.725-1.702 3.069-3.707 4.032-6.014.963-2.307 1.445-4.805 1.445-7.493 0-2.688-.47-5.174-1.411-7.459-.941-2.285-2.274-4.29-3.999-6.014-1.724-1.725-3.74-3.058-6.048-3.999-2.307-.94-4.804-1.411-7.492-1.411-2.733 0-5.276.482-7.628 1.445-2.352.963-4.39 2.307-6.115 4.032-1.725 1.725-3.069 3.74-4.032 6.048-.963 2.307-1.445 4.805-1.445 7.493 0 2.688.47 5.174 1.412 7.459.94 2.285 2.273 4.278 3.998 5.98 1.725 1.703 3.74 3.025 6.048 3.965 2.307.941 4.805 1.412 7.493 1.412zm.135-9.879c-1.478 0-2.822-.392-4.032-1.176-1.21-.784-2.161-1.859-2.856-3.225-.694-1.367-1.041-2.901-1.041-4.604 0-1.747.347-3.304 1.041-4.67.695-1.366 1.647-2.442 2.856-3.226 1.21-.784 2.554-1.176 4.032-1.176 1.479 0 2.823.392 4.032 1.176 1.21.784 2.162 1.86 2.856 3.226.695 1.366 1.042 2.923 1.042 4.67 0 1.703-.347 3.237-1.042 4.604-.694 1.366-1.646 2.441-2.856 3.225-1.21.784-2.553 1.176-4.032 1.176zm33.667 8.467V32.66l12.245 17.435c.075.108.198.172.33.172h12.48c.222 0 .403-.18.403-.404 0-.088-.03-.175-.084-.245l-14.823-19.31 13.132-15.192c.146-.169.127-.423-.041-.569-.073-.063-.167-.098-.264-.098h-11.36c-.12 0-.235.054-.311.146l-11.707 14.168V.403c0-.222-.18-.403-.403-.403h-10.147c-.223 0-.403.18-.403.403v49.46c0 .222.18.403.403.403h10.147c.223 0 .403-.18.403-.404zm42.538 1.412c2.554 0 4.95-.415 7.19-1.244 2.24-.828 4.2-1.993 5.88-3.494 1.625-1.451 2.862-3.165 3.712-5.14.041-.096-.003-.207-.1-.249l-.026-.009-9.623-2.518c-.107-.028-.22.011-.288.1-.825 1.091-1.763 1.916-2.814 2.474-1.097.582-2.363.873-3.797.873-1.926 0-3.516-.593-4.77-1.78-1.255-1.188-2.106-2.879-2.554-5.074h24.326c.223 0 .403-.18.403-.403v-2.016c0-2.912-.425-5.556-1.277-7.93-.85-2.374-2.06-4.413-3.628-6.115-1.568-1.703-3.45-3.013-5.645-3.931-2.195-.919-4.637-1.378-7.325-1.378-2.554 0-4.928.47-7.123 1.411-2.195.941-4.11 2.263-5.746 3.965-1.635 1.702-2.912 3.696-3.83 5.98-.919 2.286-1.378 4.772-1.378 7.46 0 2.778.448 5.331 1.344 7.66.896 2.33 2.173 4.346 3.83 6.049 1.658 1.702 3.607 3.013 5.847 3.931 2.24.918 4.704 1.378 7.392 1.378zm6.25-23.05h-13.44c.403-2.106 1.198-3.73 2.385-4.872 1.187-1.142 2.677-1.714 4.469-1.714 1.747 0 3.192.572 4.334 1.714 1.143 1.142 1.893 2.766 2.252 4.872zm25.536 21.638v-19.89c0-1.255.268-2.386.806-3.394s1.266-1.804 2.184-2.386c.918-.582 1.982-.874 3.192-.874 1.702 0 3.035.616 3.998 1.848.964 1.232 1.445 2.901 1.445 5.007v19.69c0 .222.18.403.403.403h10.148c.222 0 .403-.18.403-.404V28.627c0-3.091-.527-5.768-1.58-8.03-1.052-2.263-2.53-4.021-4.435-5.275-1.904-1.255-4.132-1.882-6.686-1.882-2.33 0-4.39.515-6.182 1.546-1.792 1.03-3.204 2.419-4.234 4.166v-4.3c0-.223-.18-.404-.403-.404h-9.61c-.222 0-.403.18-.403.403v35.011c0 .223.18.404.403.404h10.147c.223 0 .404-.18.404-.404z" transform="translate(-1207 -124) translate(1207 124)"/>
                <path fill="#FF2A68" d="M219.542 50.534c1.255 0 2.386-.302 3.394-.907s1.803-1.411 2.386-2.419c.582-1.008.873-2.117.873-3.326 0-1.21-.291-2.319-.873-3.327-.583-1.008-1.378-1.814-2.386-2.419-1.008-.605-2.14-.907-3.394-.907s-2.385.302-3.393.907-1.803 1.411-2.386 2.42c-.582 1.007-.873 2.116-.873 3.326s.29 2.318.873 3.326 1.378 1.814 2.386 2.42c1.008.604 2.139.906 3.393.906z" transform="translate(-1207 -124) translate(1207 124)"/>
            </g>
        </g>
    </g>
</svg>
