<?xml version="1.0" encoding="UTF-8"?>
<svg width="47px" height="47px" viewBox="0 0 47 47" version="1.1" xmlns="http://www.w3.org/2000/svg" xmlns:xlink="http://www.w3.org/1999/xlink">
    <!-- Generator: Sketch 60.1 (88133) - https://sketch.com -->
    <title>Group 11</title>
    <desc>Created with Sketch.</desc>
    <g id="Final-Website-😻" stroke="none" stroke-width="1" fill="none" fill-rule="evenodd">
        <g id="Our-Vision" transform="translate(-1199.000000, -1767.000000)" fill-rule="nonzero">
            <g id="Group-11" transform="translate(1199.000000, 1767.000000)">
                <path d="M23.3,0 L23.3010173,8.60008695 C23.2840183,8.600029 23.2670126,8.6 23.25,8.6 C15.1590284,8.6 8.6,15.1590284 8.6,23.25 C8.6,31.3409716 15.1590284,37.9 23.25,37.9 L23.3,37.899 L23.3,46.6 C10.4317653,46.6 0,36.1682347 0,23.3 C0,10.4317653 10.4317653,0 23.3,0 Z" id="Oval-2" fill="#FF2A68"></path>
                <path d="M23.3,0 L23.3010173,8.60008695 C23.2840183,8.600029 23.2670126,8.6 23.25,8.6 C15.1590284,8.6 8.6,15.1590284 8.6,23.25 C8.6,31.3409716 15.1590284,37.9 23.25,37.9 L23.3,37.899 L23.3,46.6 C10.4317653,46.6 0,36.1682347 0,23.3 C0,10.4317653 10.4317653,0 23.3,0 Z" id="Oval-2" fill="#FF2A68"></path>
                <path d="M23.3,0 C36.1682347,0 46.6,10.4317653 46.6,23.3 C46.6,36.1682347 36.1682347,46.6 23.3,46.6 L23.3,46.6 L23.2993305,37.899 L23.5644465,37.8966922 C31.5102297,37.7293772 37.9,31.235894 37.9,23.25 C37.9,15.1754259 31.3675302,8.62659182 23.2991734,8.60008078 Z" id="Oval-3" fill="#FFC4AF"></path>
            </g>
        </g>
    </g>
</svg>