<svg xmlns="http://www.w3.org/2000/svg" width="46" height="37" viewBox="0 0 46 37">
    <g fill="none" fill-rule="evenodd">
        <g fill="#000" fill-rule="nonzero">
            <g>
                <path d="M45.188 4.347c-1.68.737-3.47 1.225-5.338 1.462 1.92-1.146 3.387-2.948 4.076-5.12-1.79 1.068-3.768 1.822-5.875 2.243C36.351 1.122 33.928 0 31.284 0c-5.129 0-9.258 4.163-9.258 9.266 0 .735.063 1.44.215 2.113-7.702-.376-14.517-4.067-19.095-9.69-.799 1.387-1.268 2.974-1.268 4.683 0 3.208 1.652 6.052 4.115 7.698-1.488-.028-2.948-.46-4.185-1.14v.101c0 4.502 3.21 8.241 7.422 9.103-.754.206-1.576.305-2.43.305-.592 0-1.191-.034-1.753-.158 1.2 3.668 4.606 6.365 8.656 6.453-3.152 2.466-7.154 3.951-11.486 3.951-.76 0-1.488-.034-2.217-.127 4.104 2.646 8.967 4.157 14.212 4.157 17.047 0 26.367-14.12 26.367-26.361 0-.41-.014-.805-.034-1.198 1.839-1.305 3.384-2.934 4.643-4.81z" transform="translate(-1293 -630) translate(1293 630)"/>
            </g>
        </g>
    </g>
</svg>
