<?xml version="1.0" encoding="UTF-8"?>
<svg width="26px" height="26px" viewBox="0 0 26 26" version="1.1" xmlns="http://www.w3.org/2000/svg" xmlns:xlink="http://www.w3.org/1999/xlink">
    <!-- Generator: Sketch 60.1 (88133) - https://sketch.com -->
    <title>001-instagram</title>
    <desc>Created with Sketch.</desc>
    <g id="Symbols" stroke="none" stroke-width="1" fill="none" fill-rule="evenodd">
        <g id="Footer-Mobile" transform="translate(-184.000000, -1073.000000)" fill="#FFFFFF" fill-rule="nonzero">
            <g id="001-instagram" transform="translate(184.000000, 1073.000000)">
                <path d="M17.7408,0 L8.064,0 C3.6110592,0 0,3.6110592 0,8.064 L0,17.7408 C0,22.1937408 3.6110592,25.8048 8.064,25.8048 L17.7408,25.8048 C22.1937408,25.8048 25.8048,22.1937408 25.8048,17.7408 L25.8048,8.064 C25.8048,3.6110592 22.1937408,0 17.7408,0 Z M23.3856,17.7408 C23.3856,20.853504 20.853504,23.3856 17.7408,23.3856 L8.064,23.3856 C4.951296,23.3856 2.4192,20.853504 2.4192,17.7408 L2.4192,8.064 C2.4192,4.951296 4.951296,2.4192 8.064,2.4192 L17.7408,2.4192 C20.853504,2.4192 23.3856,4.951296 23.3856,8.064 L23.3856,17.7408 Z" id="Shape"></path>
                <path d="M12.9024,6.4512 C9.3397248,6.4512 6.4512,9.3397248 6.4512,12.9024 C6.4512,16.4650752 9.3397248,19.3536 12.9024,19.3536 C16.4650752,19.3536 19.3536,16.4650752 19.3536,12.9024 C19.3536,9.3397248 16.4650752,6.4512 12.9024,6.4512 Z M12.9024,16.9344 C10.6799616,16.9344 8.8704,15.1248384 8.8704,12.9024 C8.8704,10.6783488 10.6799616,8.8704 12.9024,8.8704 C15.1248384,8.8704 16.9344,10.6783488 16.9344,12.9024 C16.9344,15.1248384 15.1248384,16.9344 12.9024,16.9344 Z" id="Shape"></path>
                <circle id="Oval" cx="19.83744" cy="5.96736" r="1"></circle>
            </g>
        </g>
    </g>
</svg>