<?xml version="1.0" encoding="UTF-8"?>
<svg width="162px" height="35px" viewBox="0 0 162 35" version="1.1" xmlns="http://www.w3.org/2000/svg" xmlns:xlink="http://www.w3.org/1999/xlink">
    <!-- Generator: Sketch 60.1 (88133) - https://sketch.com -->
    <title>Twilio—Segment—Horizontal—DarkAcai</title>
    <desc>Created with Sketch.</desc>
    <g id="Final-Website-😻" stroke="none" stroke-width="1" fill="none" fill-rule="evenodd">
        <g id="Our-Partners" transform="translate(-670.000000, -4244.000000)" fill="#1C0732">
            <g id="Twilio—Segment—Horizontal—DarkAcai" transform="translate(670.000000, 4244.000000)">
                <rect id="Rectangle" fill-rule="nonzero" x="12" y="12" width="19" height="3" rx="0.572"></rect>
                <rect id="Rectangle" fill-rule="nonzero" x="0" y="20" width="19" height="3" rx="0.572"></rect>
                <path d="M2.49382176,13.979931 C2.82449843,14.0652083 3.1628233,13.8710587 3.25550172,13.5428367 C5.33524743,7.04260641 12.0326608,3.195371 18.7057857,4.66763723 C19.0293332,4.7342108 19.3485153,4.53645941 19.4324459,4.21743012 L19.9796298,2.17838528 C20.0228731,2.01297881 19.9966294,1.83711458 19.9069706,1.69148159 C19.8173118,1.5458486 19.6720068,1.44306588 19.5046742,1.40691387 C11.0665233,-0.489617959 2.58577264,4.40856129 0.0249281023,12.6577208 C-0.0220377802,12.8188913 -0.00210871666,12.9921507 0.0802286053,13.1384926 C0.162565927,13.2848345 0.300391122,13.3919589 0.462675205,13.4357486 L2.49382176,13.979931 Z" id="Path"></path>
                <path d="M29.5036289,21.0217443 C29.1702957,20.9322417 28.8268605,21.1270622 28.7332338,21.4587662 C26.6580185,27.9622993 19.9596679,31.8143721 13.2837487,30.3434225 C12.9600097,30.2756862 12.6400913,30.4738712 12.557126,30.7935551 L12.0209136,32.821337 C11.9769881,32.9870202 12.0028951,33.1634333 12.0926101,33.3095538 C12.1823252,33.4556743 12.3280306,33.5587694 12.4958446,33.5948659 C20.9335092,35.486412 29.4112308,30.5895884 31.9745836,22.3437357 C32.0221323,22.1828641 32.0024317,22.0096269 31.9199702,21.8634926 C31.8375087,21.7173584 31.6993097,21.6107737 31.5368591,21.5680217 L29.5036289,21.0217443 Z" id="Path"></path>
                <circle id="Oval" fill-rule="nonzero" cx="25" cy="6" r="2"></circle>
                <circle id="Oval" fill-rule="nonzero" cx="6" cy="29" r="2"></circle>
                <path d="M76.3360871,14.0182306 C77.6980973,12.5111608 79.6359867,11.6647763 81.6586915,11.6935522 C83.6017602,11.6935522 85.1149851,12.2990293 86.0711679,13.4613685 L86.0711679,12.4979086 C86.084212,12.2220858 86.3019599,12.0007728 86.5755762,11.9852419 L89.1370933,11.9852419 C89.4102667,12.0017618 89.6274722,12.2225235 89.6415017,12.4979086 L89.6415017,26.8282693 C89.7209576,28.8504048 89.100788,30.837553 87.8870379,32.449925 C86.5053977,34.1426091 84.4088135,35 81.6543054,35 C77.8251882,35 74.8031244,32.5582038 74.3052953,29.0711862 C74.2803823,28.8116443 74.4426191,28.5710811 74.6912773,28.4988557 L77.1935813,27.9066372 C77.2067188,27.9055795 77.2199192,27.9055795 77.2330567,27.9066372 C77.3648862,27.8864154 77.4992709,27.9200894 77.6063437,28.0001752 C77.7134165,28.0802611 77.7843061,28.2001234 77.8032574,28.3331229 C78.0347152,30.2882799 79.7051856,31.7445497 81.6586915,31.6941836 C84.6500523,31.6941836 86.0448509,30.1473443 86.0448509,26.9144503 L86.0448509,25.6593008 C84.9335277,26.9140133 83.3267907,27.6069304 81.6586915,27.5508642 C77.4019238,27.5508642 74.3140676,24.2207403 74.3140676,19.6376766 C74.2762417,17.5771995 74.9965015,15.5755072 76.3360871,14.0182306 Z M126.007149,11.4968826 L126.140927,11.4968826 C130.717884,11.5587562 133.553537,14.7695525 133.553537,19.9072686 C133.55314,20.1796579 133.538499,20.451837 133.509675,20.7226738 C133.479839,20.973672 133.269303,21.163081 133.018425,21.1646279 L122.138557,21.1646279 C122.206612,23.4672218 124.096194,25.288532 126.382166,25.2549128 C128.154012,25.3664372 129.767899,24.231325 130.274882,22.5170073 C130.369541,22.2640866 130.644761,22.1307809 130.89991,22.2142688 L133.06448,22.9876884 C133.191037,23.0293117 133.293957,23.1233675 133.347387,23.2462316 C133.407235,23.3647964 133.416732,23.5027668 133.373704,23.6285218 C132.365654,26.6375976 129.523882,28.6290601 126.373394,28.534212 C124.307898,28.5544942 122.320202,27.7412701 120.853412,26.2758267 C119.252459,24.5793234 118.397815,22.3041714 118.482693,19.9647226 C118.482693,14.6612738 122.307424,11.4858338 126.002763,11.4858338 L126.007149,11.4968826 Z M64.4517882,11.4968826 C69.1098895,11.4968826 72.0047547,14.7209376 72.0047547,19.9094783 C72.0043581,20.1818677 71.9897173,20.4540468 71.9608931,20.7248836 C71.933895,20.9773617 71.7216605,21.168299 71.4696432,21.1668377 L60.5897748,21.1668377 C60.6531643,23.4834287 62.5602323,25.3142117 64.859701,25.2659616 C66.6320121,25.3791574 68.2468309,24.2433898 68.7524175,22.5280562 C68.8443411,22.2726271 69.1220601,22.1381111 69.3774452,22.2253177 L71.5507872,22.9965275 C71.6776349,23.0376459 71.7807343,23.1318664 71.8336945,23.2550706 C71.8840149,23.3774571 71.8840149,23.5149744 71.8336945,23.6373609 C70.8261181,26.6448365 67.9866598,28.6359248 64.8377702,28.5430511 C62.7686258,28.5655539 60.7767076,27.7522178 59.3068232,26.2846658 C57.7088631,24.5862691 56.8547133,22.3124325 56.9361041,19.9735617 C56.9361041,14.6701129 60.7608351,11.4946729 64.4583674,11.4946729 L64.4517882,11.4968826 Z M47.9729873,11.4968826 C50.0629923,11.4968826 51.7538567,12.0073396 53.0061052,13.0172046 C53.8517212,13.6968187 54.4789368,14.6132799 54.8088167,15.6512509 L54.8088167,15.6512509 C54.8297739,15.740375 54.8144321,15.834244 54.7662183,15.9118902 C54.7180044,15.9895364 54.6409355,16.0444907 54.5522264,16.0644779 L51.9578131,16.9284981 C51.8426887,16.9726746 51.7154656,16.9726746 51.6003411,16.9284981 C51.5013049,16.882406 51.4269224,16.7953689 51.3963847,16.6898429 C51.1770768,15.8435009 50.4226573,14.4226186 47.9686012,14.4226186 C46.2558059,14.4226186 45.2294446,15.4125957 45.2294446,16.371636 C45.2294446,17.0080499 45.5562135,17.8278747 47.1001416,18.1239839 L49.9511452,18.6631679 C53.13769,19.3106306 54.9623323,21.067398 54.9623323,23.5136138 L54.9623323,23.4716281 C54.9623323,25.9023755 52.642054,28.4988557 48.3304593,28.4988557 C43.3302376,28.4988557 41.3652382,25.6482519 41.00338,23.9666167 C40.9785834,23.7848279 41.09255,23.6130515 41.2687427,23.5666483 L43.9442999,22.7269355 C43.9921489,22.7180964 44.0411942,22.7180964 44.0890432,22.7269355 C44.1654305,22.7255506 44.2409081,22.7438031 44.3083511,22.77997 C44.406593,22.8275821 44.4788653,22.9165873 44.5057283,23.0230447 C44.8434626,24.6405966 46.2930883,25.6040565 48.3787071,25.6040565 C50.3195826,25.6040565 51.2033937,24.5809328 51.2033937,23.6528293 C51.2033937,22.7247258 50.4160781,22.0419067 49.0629479,21.7678952 L46.0628149,21.1800963 C43.2644452,20.6475416 41.5209468,18.8951937 41.5209468,16.6147108 C41.5209468,13.8392392 44.4794114,11.4968826 47.9729873,11.4968826 Z M158.186208,7 C158.468822,7.01753874 158.688958,7.25387936 158.688423,7.53918396 L158.688423,11.9587246 L161.502144,11.9587246 C161.78253,11.9795371 161.999586,12.2146241 161.999987,12.4979086 L161.999987,14.8535238 C162.001201,15.1325125 161.779005,15.3603445 161.502144,15.3639807 L158.688423,15.3639807 L158.688423,23.2285534 C158.688423,24.5323179 159.201604,25.0715019 160.521838,25.0715019 C160.822873,25.0664179 161.123246,25.0413193 161.421,24.9963697 C161.566822,24.9712867 161.716181,25.0125518 161.828913,25.109068 C161.936423,25.2096061 161.998263,25.3502039 161.999987,25.4979875 L161.999987,27.7077579 C162.001602,27.933647 161.85507,28.1335108 161.640308,28.1983269 C160.998152,28.3797237 160.333378,28.4668021 159.666537,28.45687 C156.846236,28.45687 155.098352,26.6293899 155.098352,23.6815563 L155.098352,15.3971273 L152.664033,15.3971273 C152.391274,15.3805098 152.174759,15.1594883 152.161809,14.8844606 L152.161809,12.5244259 C152.16018,12.2386842 152.380916,12.0016999 152.664033,11.9852419 L153.29564,11.9852419 C154.061025,11.9852419 155.350556,11.7156499 155.350556,9.87712098 L155.350556,7.53918396 C155.348918,7.25344226 155.569654,7.01645799 155.852771,7 L158.186208,7 Z M105.376849,14.1309289 C106.495918,12.4076071 108.433844,11.4064938 110.475759,11.4968826 L110.475759,11.4968826 C113.256584,11.4968826 116.065919,13.4702076 116.065919,17.7814695 L116.065919,27.7607924 C116.05189,28.0361775 115.834684,28.2569392 115.561511,28.2734591 L112.9978,28.2734591 C112.725485,28.255861 112.509505,28.0353866 112.495585,27.7607924 L112.495585,18.1018862 C112.495585,16.8798832 112.116182,14.8203772 109.548086,14.8203772 C107.67081,14.8203772 106.337417,16.3075527 106.337417,18.4642885 L106.337417,27.7607924 C106.324477,28.03582 106.107961,28.2568416 105.835202,28.2734591 L103.238596,28.2734591 C102.965422,28.2569392 102.748217,28.0361775 102.734187,27.7607924 L102.734187,18.1018862 C102.738574,16.8798832 102.361364,14.8115382 99.7910745,14.8115382 C97.8392336,14.8115382 96.5233858,16.2876647 96.5233858,18.4863862 L96.5233858,27.7607924 C96.5094661,28.0353866 96.2934865,28.255861 96.0211705,28.2734591 L93.4596534,28.2734591 C93.1886112,28.2546867 92.9745462,28.0342415 92.9618243,27.7607924 L92.9618243,12.4647621 C92.9755122,12.1917379 93.1890539,11.9718317 93.4596534,11.9520953 L95.924675,11.9520953 C96.196991,11.9696934 96.4129706,12.1901678 96.4268902,12.4647621 L96.4268902,13.3862363 C97.5374963,12.1620022 99.1144677,11.4744658 100.760416,11.4968826 C102.665843,11.4406822 104.444544,12.4555741 105.376849,14.1309289 Z M144.437791,11.4968826 C146.099064,11.4252987 147.700864,12.1267859 148.782282,13.3994949 C149.777961,14.7201792 150.284498,16.3498396 150.214363,18.0068661 L150.214363,27.7607924 C150.20273,28.0338826 149.989357,28.2545878 149.718727,28.2734591 L147.124314,28.2734591 C146.851579,28.2559642 146.634906,28.0357438 146.619905,27.7607924 L146.619905,18.5283719 C146.619905,16.1130929 145.492662,14.8844606 143.352217,14.8844606 C142.407306,14.8537699 141.504284,15.2779495 140.920091,16.0269118 C140.339898,16.8679039 140.046651,17.8761004 140.084528,18.8996133 L140.084528,27.7607924 C140.070608,28.0353866 139.854629,28.255861 139.582313,28.2734591 L136.992285,28.2734591 C136.71997,28.255861 136.50399,28.0353866 136.49007,27.7607924 L136.49007,12.4537132 C136.500921,12.1773877 136.718276,11.9545529 136.992285,11.9388367 L139.523099,11.9388367 C139.79379,11.9565276 140.008102,12.1762752 140.020929,12.4492937 L140.020929,13.5276616 C141.10781,12.2061261 142.734853,11.4580464 144.437791,11.4968826 Z M82.1038867,14.9176071 C79.5774589,14.9176071 77.9743176,16.727409 77.9743176,19.6376766 C77.9743176,22.5479441 79.5577212,24.3555363 82.1038867,24.3555363 C84.5316259,24.3555363 86.1676634,22.4573435 86.1676634,19.6376766 C86.1676634,16.8180096 84.5316259,14.9176071 82.1038867,14.9176071 Z M64.4781052,14.7717623 C62.546324,14.7381562 60.9064815,16.1913577 60.6928496,18.1261937 L68.3028362,18.1261937 C68.1208105,16.0556389 66.6602195,14.7717623 64.4781052,14.7717623 L64.4781052,14.7717623 Z M126.048818,14.7717623 C124.119086,14.7415021 122.482406,16.1935831 122.267948,18.1261937 L129.880128,18.1261937 C129.691523,16.0556389 128.239704,14.7717623 126.046625,14.7717623 L126.048818,14.7717623 Z" id="Shape"></path>
                <polygon id="Path" fill-rule="nonzero" points="45.1513448 1.17093426 45.1513448 6 43.8285829 6 43.8285829 1.17093426 42 1.17093426 42 0 47 0 47 1.17093426"></polygon>
                <polygon id="Path" fill-rule="nonzero" points="56.2471597 6 54.8177603 6 53.5073035 1.59310345 52.1738929 6 50.7737074 6 49 1.37820789e-16 50.4607002 1.37820789e-16 51.5854394 4.32206897 52.8541618 0 54.314862 0 55.5668908 4.32206897 56.6561558 0 58 0"></polygon>
                <polygon id="Path" fill-rule="nonzero" points="61 6 61 0 62 0 62 6"></polygon>
                <polygon id="Path" fill-rule="nonzero" points="64 6 64 0 65.4750979 0 65.4750979 4.81868512 68 4.81868512 68 6"></polygon>
                <polygon id="Path" fill-rule="nonzero" points="71 6 71 0 72 0 72 6"></polygon>
                <path d="M76.9958391,7 C75.331484,7 74,5.65843072 74,3.50584307 C74,1.35325543 75.350208,0 77.0062413,0 C78.6622746,0 80,1.34156928 80,3.50584307 C80,5.67011686 78.6601942,7 76.9958391,7 Z M76.9958391,1.23639399 C75.9556172,1.23639399 75.350208,2.19933222 75.350208,3.49415693 C75.350208,4.78898164 75.9743412,5.76360601 76.9958391,5.76360601 C78.017337,5.76360601 78.6185853,4.77729549 78.6185853,3.50584307 C78.6185853,2.23439065 78.0110957,1.23639399 77.0062413,1.23639399 L76.9958391,1.23639399 Z" id="Shape" fill-rule="nonzero"></path>
            </g>
        </g>
    </g>
</svg>