<svg xmlns="http://www.w3.org/2000/svg" width="208" height="61" viewBox="0 0 208 61">
    <g fill="none" fill-rule="evenodd">
        <g fill-rule="nonzero">
            <g>
                <g transform="translate(-443 -5352) translate(443 5352) translate(.08 .72)">
                    <g fill="#070B34">
                        <path d="M26.495 40.264c.056 3.608-.878 6.686-2.805 9.237-1.266 1.737-3.05 2.956-5.355 3.655-1.247.397-2.692.595-4.336.595-3.059 0-5.59-.756-7.593-2.267-1.662-1.246-2.984-2.932-3.966-5.058-.982-2.124-1.549-4.576-1.7-7.352l7.394-.51c.34 3.003 1.144 5.176 2.408 6.517.927 1.02 1.994 1.501 3.203 1.445 1.7-.056 3.06-.888 4.08-2.493.529-.813.793-1.955.793-3.429 0-2.172-.972-4.316-2.918-6.432-2.317-2.178-4.63-4.36-6.942-6.544-2.588-2.494-4.41-4.733-5.468-6.716-1.152-2.229-1.728-4.646-1.728-7.253 0-4.704 1.576-8.264 4.73-10.682C8.239 1.522 10.658.795 13.547.795c2.777 0 5.157.624 7.14 1.87 1.53.964 2.768 2.31 3.712 4.038.944 1.728 1.52 3.716 1.728 5.964l-7.48 1.36c-.208-2.116-.812-3.759-1.813-4.93-.718-.869-1.747-1.303-3.088-1.303-1.416 0-2.503.632-3.259 1.898-.604 1.02-.906 2.286-.906 3.797 0 2.36 1.02 4.77 3.06 7.225.774.925 1.926 2.021 3.456 3.287 1.814 1.511 3.014 2.568 3.6 3.173 1.906 1.927 3.39 3.825 4.447 5.696.45.784.848 1.598 1.19 2.436.737 1.832 1.124 3.484 1.162 4.958zM45.138.795c3.438 0 6.361 1.209 8.77 3.627 2.408 2.418 3.612 5.336 3.612 8.755v28.192c0 3.438-1.208 6.36-3.626 8.77-2.418 2.407-5.336 3.612-8.756 3.612-3.419 0-6.323-1.21-8.712-3.627-2.39-2.418-3.584-5.336-3.584-8.755V13.177c0-3.438 1.208-6.36 3.626-8.769C38.886 2 41.776.795 45.138.795zm4.25 12.212c0-1.246-.43-2.3-1.289-3.159-.859-.86-1.912-1.29-3.159-1.29-1.228 0-2.28.43-3.16 1.29-.878.86-1.317 1.912-1.317 3.16v28.305c0 1.227.44 2.276 1.318 3.144.878.87 1.931 1.304 3.16 1.304 1.245 0 2.299-.435 3.158-1.304.86-.868 1.29-1.917 1.29-3.144V13.007zm27.229 40.744c-3.419 0-6.323-1.195-8.712-3.584-2.39-2.39-3.584-5.285-3.584-8.685V1.418h7.621v39.98c0 1.228.439 2.276 1.317 3.144.879.87 1.932 1.304 3.16 1.304 1.247 0 2.3-.435 3.159-1.304.86-.868 1.29-1.916 1.29-3.144V1.418h8.131v40.064c0 3.456-1.21 6.366-3.627 8.727-2.418 2.361-5.336 3.542-8.755 3.542zm43.86-12.382c0 2.23-.547 4.297-1.643 6.205.68.793 1.662 1.19 2.947 1.19v7.254c-3.891 0-6.555-1.228-7.99-3.684-1.719.944-3.599 1.416-5.639 1.416-3.438 0-6.356-1.208-8.754-3.626-2.4-2.418-3.599-5.336-3.599-8.755V13.177c0-3.438 1.208-6.36 3.627-8.769C101.843 2 104.752.795 108.152.795c3.438 0 6.352 1.219 8.742 3.655 2.388 2.437 3.584 5.346 3.584 8.727v28.192zm-8.075-28.361c0-1.246-.439-2.3-1.317-3.16-.879-.858-1.941-1.289-3.187-1.289-1.228 0-2.276.43-3.146 1.29-.869.859-1.303 1.912-1.303 3.159v28.306c0 1.227.434 2.276 1.304 3.144.869.87 1.917 1.304 3.144 1.304 1.247 0 2.31-.435 3.188-1.304.878-.868 1.317-1.917 1.317-3.144V13.007v.001z" transform="translate(71.2)"/>
                    </g>
                    <g fill="#070B34">
                        <path d="M26.495 40.264c.056 3.608-.878 6.686-2.805 9.237-1.266 1.737-3.05 2.956-5.355 3.655-1.247.397-2.692.595-4.336.595-3.059 0-5.59-.756-7.593-2.267-1.662-1.246-2.984-2.932-3.966-5.058-.982-2.124-1.549-4.576-1.7-7.352l7.394-.51c.34 3.003 1.144 5.176 2.408 6.517.927 1.02 1.994 1.501 3.203 1.445 1.7-.056 3.06-.888 4.08-2.493.529-.813.793-1.955.793-3.429 0-2.172-.972-4.316-2.918-6.432-2.317-2.178-4.63-4.36-6.942-6.544-2.588-2.494-4.41-4.733-5.468-6.716-1.152-2.229-1.728-4.646-1.728-7.253 0-4.704 1.576-8.264 4.73-10.682C8.239 1.522 10.658.795 13.547.795c2.777 0 5.157.624 7.14 1.87 1.53.964 2.768 2.31 3.712 4.038.944 1.728 1.52 3.716 1.728 5.964l-7.48 1.36c-.208-2.116-.812-3.759-1.813-4.93-.718-.869-1.747-1.303-3.088-1.303-1.416 0-2.503.632-3.259 1.898-.604 1.02-.906 2.286-.906 3.797 0 2.36 1.02 4.77 3.06 7.225.774.925 1.926 2.021 3.456 3.287 1.814 1.511 3.014 2.568 3.6 3.173 1.906 1.927 3.39 3.825 4.447 5.696.45.784.848 1.598 1.19 2.436.737 1.832 1.124 3.484 1.162 4.958zM45.138.795c3.438 0 6.361 1.209 8.77 3.627 2.408 2.418 3.612 5.336 3.612 8.755v28.192c0 3.438-1.208 6.36-3.626 8.77-2.418 2.407-5.336 3.612-8.756 3.612-3.419 0-6.323-1.21-8.712-3.627-2.39-2.418-3.584-5.336-3.584-8.755V13.177c0-3.438 1.208-6.36 3.626-8.769C38.886 2 41.776.795 45.138.795zm4.25 12.212c0-1.246-.43-2.3-1.289-3.159-.859-.86-1.912-1.29-3.159-1.29-1.228 0-2.28.43-3.16 1.29-.878.86-1.317 1.912-1.317 3.16v28.305c0 1.227.44 2.276 1.318 3.144.878.87 1.931 1.304 3.16 1.304 1.245 0 2.299-.435 3.158-1.304.86-.868 1.29-1.917 1.29-3.144V13.007zm27.229 40.744c-3.419 0-6.323-1.195-8.712-3.584-2.39-2.39-3.584-5.285-3.584-8.685V1.418h7.621v39.98c0 1.228.439 2.276 1.317 3.144.879.87 1.932 1.304 3.16 1.304 1.247 0 2.3-.435 3.159-1.304.86-.868 1.29-1.916 1.29-3.144V1.418h8.131v40.064c0 3.456-1.21 6.366-3.627 8.727-2.418 2.361-5.336 3.542-8.755 3.542zm43.86-12.382c0 2.23-.547 4.297-1.643 6.205.68.793 1.662 1.19 2.947 1.19v7.254c-3.891 0-6.555-1.228-7.99-3.684-1.719.944-3.599 1.416-5.639 1.416-3.438 0-6.356-1.208-8.754-3.626-2.4-2.418-3.599-5.336-3.599-8.755V13.177c0-3.438 1.208-6.36 3.627-8.769C101.843 2 104.752.795 108.152.795c3.438 0 6.352 1.219 8.742 3.655 2.388 2.437 3.584 5.346 3.584 8.727v28.192zm-8.075-28.361c0-1.246-.439-2.3-1.317-3.16-.879-.858-1.941-1.289-3.187-1.289-1.228 0-2.276.43-3.146 1.29-.869.859-1.303 1.912-1.303 3.159v28.306c0 1.227.434 2.276 1.304 3.144.869.87 1.917 1.304 3.144 1.304 1.247 0 2.31-.435 3.188-1.304.878-.868 1.317-1.917 1.317-3.144V13.007v.001z" transform="translate(71.2)"/>
                    </g>
                    <circle cx="201.567" cy="51.889" r="4.62" fill="#E94D34" transform="rotate(-81.57 201.567 51.889)"/>
                    <path fill="#070B34" d="M12.946 55.123c-.15 1.109-.882 2.052-1.919 2.471-1.037.42-2.219.251-3.097-.44-.878-.693-1.318-1.803-1.152-2.91.253-1.692 1.825-2.863 3.52-2.622 1.694.242 2.877 1.805 2.648 3.501zm12.073-.176c-1.015-.153-2.022.32-2.55 1.2-.53.88-.475 1.993.137 2.817.611.824 1.66 1.198 2.655.946.996-.251 1.74-1.078 1.888-2.094.189-1.373-.76-2.643-2.13-2.851v-.018zm9.029-14.819c-.412 1.564-.893 3.108-1.443 4.629-.523 1.566-1.226 3.066-2.095 4.47-.77 1.277-1.87 2.323-3.185 3.027-1.009.462-2.112.68-3.221.634-1.623-.033-3.238-.227-4.822-.58-1.64-.335-3.258-.775-4.84-1.32-1.558-.523-3.066-1.183-4.506-1.972-.781-.4-1.49-.93-2.094-1.566-.95-1.188-1.557-2.612-1.76-4.119-.25-1.57-.35-3.162-.3-4.752 0-2.147.23-4.277.37-6.406-1.087-.368-2.161-.773-3.22-1.215L2.35 30.8c-.882-.308-1.617-.936-2.059-1.76-.22-.559-.292-1.165-.211-1.76.026-.594.114-1.184.264-1.76.13-.577.452-1.093.915-1.46.522-.337 1.16-.439 1.76-.282.563.105 1.109.299 1.655.457.63.136 1.228.392 1.76.757.68.58 1.115 1.399 1.214 2.288.165 1.313.224 2.638.176 3.96.856.234 1.72.458 2.587.669 3.04.752 6.12 1.339 9.223 1.76 1.619.2 3.238.364 4.857.493 1.637.123 3.291.193 4.946.264 1.486-.124 2.958.373 4.065 1.372.897 1.26 1.102 2.887.546 4.33zM6.24 30.8v-3.502c-.015-.168-.05-.334-.106-.493-.102-.363-.317-.684-.616-.915-.735-.427-1.53-.74-2.358-.933-.34-.164-.724-.208-1.091-.123-.318.166-.549.46-.634.81-.147.431-.236.881-.264 1.337-.059.397-.059.8 0 1.197.257.738.853 1.308 1.602 1.53 1.138.411 2.293.775 3.467 1.092zm25.291 6.882c-.117-.262-.353-.452-.633-.51-.643-.176-1.305-.27-1.972-.282-3.203-.282-6.388-.687-9.539-1.285-2.963-.558-5.9-1.251-8.8-2.077l-2.798-.862c0 2.217-.106 4.435 0 6.635.07 1.289.265 2.568.58 3.819.2 1.11.748 2.128 1.567 2.904l.211.14h.106l.387.476c.493.282 1.02.528 1.531.74 1.083.404 2.187.745 3.309 1.02 2.295.707 4.652 1.19 7.04 1.443.998.154 2.012.154 3.01 0 .545-.143 1.043-.428 1.443-.827.513-.488.958-1.045 1.32-1.654.757-1.344 1.365-2.766 1.813-4.242.264-.774.528-1.566.774-2.34.262-.706.474-1.43.634-2.166.07-.288.076-.588.017-.88v-.052z"/>
                    <g>
                        <g fill="#000">
                            <path d="M9.294 3.618c-.45.082-.9.16-1.35.236L6.27 17.504c.43.078.86.156 1.29.236.423.093.607.364.551.814l-.188 1.528H.47l.188-1.528c.056-.45.305-.72.75-.814l.168-.03c.394-.07.787-.14 1.182-.206l1.676-13.65c-.431-.077-.861-.156-1.292-.236-.422-.092-.606-.364-.55-.813l.187-1.529h7.453l-.188 1.529c-.055.45-.305.72-.75.813zm10.998 2.874c.66 0 1.186.152 1.583.456l-.712 2.406c-.045.156-.115.266-.21.33-.108.07-.234.104-.363.098-.13 0-.304-.03-.522-.09-.218-.06-.513-.091-.886-.091-.668 0-1.263.184-1.784.552-.523.369-.992.909-1.408 1.62l-.57 4.641-.451 3.67h-3.213l.317-2.58.187-1.527.112-.91.706-5.75c-1.084-.195-1.095-.2-1.29-.235-.423-.093-.607-.364-.552-.814l.188-1.529h3.856c.33 0 .552.06.667.182.115.121.176.33.184.624l-.003 1.613c.578-.824 1.217-1.474 1.918-1.95.7-.478 1.448-.716 2.246-.716zm13.576 11.222c.422.092.606.364.55.813l-.187 1.53h-3.313c-.39 0-.664-.09-.82-.272-.156-.183-.233-.412-.233-.69l.104-1.82c-.59.919-1.254 1.644-1.99 2.178-.737.533-1.548.8-2.433.8-.486.003-.968-.099-1.41-.3-.446-.204-.837-.51-1.145-.89-.325-.395-.581-.889-.768-1.483-.186-.594-.28-1.29-.28-2.088 0-1.558.396-3.091 1.151-4.454.37-.664.814-1.272 1.334-1.828 1.046-1.117 2.374-1.932 3.843-2.36.771-.224 1.57-.336 2.374-.332.598 0 1.199.044 1.801.13.603.087 1.195.243 1.776.468L32.92 17.553l.018-.01.928.17h.002zm-3.522-4.848l.507-4.032c-.216-.026-.433-.04-.65-.04-.72 0-1.388.164-2.003.494-.618.332-1.162.785-1.6 1.334-.464.583-.823 1.243-1.06 1.95-.258.756-.388 1.55-.384 2.348 0 .936.148 1.622.442 2.055.295.434.698.65 1.21.65.355 0 .704-.121 1.047-.364.343-.243.666-.579.969-1.008.304-.429.586-.935.846-1.515.27-.608.495-1.233.676-1.872zm17.848 9.244c.423.093.607.364.552.814l-.188 1.529h-7.252l.188-1.529c.054-.45.304-.72.75-.814.449-.08.898-.158 1.347-.236l.427-3.47c-.578.55-1.24 1.005-1.96 1.347-.71.335-1.51.501-2.403.501-.728 0-1.376-.15-1.941-.448-.573-.306-1.056-.757-1.4-1.308-.368-.572-.62-1.278-.755-2.12-.135-.842-.136-1.808-.001-2.9.11-.955.361-1.888.744-2.77.372-.85.846-1.587 1.421-2.212.56-.613 1.236-1.11 1.988-1.463.764-.354 1.597-.534 2.439-.526 1.927 0 4.078.242 6.452.728l-.514 4.185-1.284 10.456c.401.073.803.142 1.206.207l.184.03zm-5.365-4.778c.507-.282.996-.678 1.466-1.19l.853-6.945c-.843-.164-1.7-.247-2.558-.247-.485 0-.935.09-1.347.273-.424.19-.8.475-1.097.832-.319.373-.587.843-.804 1.411-.217.568-.373 1.238-.468 2.01-.096.78-.114 1.44-.055 1.984.06.542.185.982.378 1.32.192.338.445.584.76.74.316.157.685.235 1.11.235.667 0 1.255-.141 1.762-.423zm12.245.408c.423.094.607.365.552.814l-.188 1.53h-5.182l.316-2.58 1.006-8.187-1.29-.236c-.424-.093-.607-.364-.553-.814l.189-1.529h5.182l-1.322 10.767.752.136.38.07.158.03v-.001zm.99-14.89c-.033.275-.123.54-.265.78-.282.485-.717.862-1.237 1.072-.264.11-.54.164-.826.164-.265.002-.526-.053-.767-.163-.225-.102-.427-.25-.59-.436-.34-.389-.494-.906-.425-1.417.036-.287.123-.556.262-.807.14-.252.311-.469.515-.65.205-.183.438-.328.698-.436.255-.108.53-.163.807-.163.286 0 .548.055.786.163.238.109.44.253.604.436.164.182.287.399.368.65.082.251.105.52.07.807z" transform="rotate(-.14 3635.423 -4566.536)"/>
                        </g>
                        <g fill="#E94D34">
                            <path d="M9.294 3.618c-.45.082-.9.16-1.35.236L6.27 17.504c.43.078.86.156 1.29.236.423.093.607.364.551.814l-.188 1.528H.47l.188-1.528c.056-.45.305-.72.75-.814l.168-.03c.394-.07.787-.14 1.182-.206l1.676-13.65c-.431-.077-.861-.156-1.292-.236-.422-.092-.606-.364-.55-.813l.187-1.529h7.453l-.188 1.529c-.055.45-.305.72-.75.813zm10.998 2.874c.66 0 1.186.152 1.583.456l-.712 2.406c-.045.156-.115.266-.21.33-.108.07-.234.104-.363.098-.13 0-.304-.03-.522-.09-.218-.06-.513-.091-.886-.091-.668 0-1.263.184-1.784.552-.523.369-.992.909-1.408 1.62l-.57 4.641-.451 3.67h-3.213l.317-2.58.187-1.527.112-.91.706-5.75c-1.084-.195-1.095-.2-1.29-.235-.423-.093-.607-.364-.552-.814l.188-1.529h3.856c.33 0 .552.06.667.182.115.121.176.33.184.624l-.003 1.613c.578-.824 1.217-1.474 1.918-1.95.7-.478 1.448-.716 2.246-.716zm13.576 11.222c.422.092.606.364.55.813l-.187 1.53h-3.313c-.39 0-.664-.09-.82-.272-.156-.183-.233-.412-.233-.69l.104-1.82c-.59.919-1.254 1.644-1.99 2.178-.737.533-1.548.8-2.433.8-.486.003-.968-.099-1.41-.3-.446-.204-.837-.51-1.145-.89-.325-.395-.581-.889-.768-1.483-.186-.594-.28-1.29-.28-2.088 0-1.558.396-3.091 1.151-4.454.37-.664.814-1.272 1.334-1.828 1.046-1.117 2.374-1.932 3.843-2.36.771-.224 1.57-.336 2.374-.332.598 0 1.199.044 1.801.13.603.087 1.195.243 1.776.468L32.92 17.553l.018-.01.928.17h.002zm-3.522-4.848l.507-4.032c-.216-.026-.433-.04-.65-.04-.72 0-1.388.164-2.003.494-.618.332-1.162.785-1.6 1.334-.464.583-.823 1.243-1.06 1.95-.258.756-.388 1.55-.384 2.348 0 .936.148 1.622.442 2.055.295.434.698.65 1.21.65.355 0 .704-.121 1.047-.364.343-.243.666-.579.969-1.008.304-.429.586-.935.846-1.515.27-.608.495-1.233.676-1.872zm17.848 9.244c.423.093.607.364.552.814l-.188 1.529h-7.252l.188-1.529c.054-.45.304-.72.75-.814.449-.08.898-.158 1.347-.236l.427-3.47c-.578.55-1.24 1.005-1.96 1.347-.71.335-1.51.501-2.403.501-.728 0-1.376-.15-1.941-.448-.573-.306-1.056-.757-1.4-1.308-.368-.572-.62-1.278-.755-2.12-.135-.842-.136-1.808-.001-2.9.11-.955.361-1.888.744-2.77.372-.85.846-1.587 1.421-2.212.56-.613 1.236-1.11 1.988-1.463.764-.354 1.597-.534 2.439-.526 1.927 0 4.078.242 6.452.728l-.514 4.185-1.284 10.456c.401.073.803.142 1.206.207l.184.03zm-5.365-4.778c.507-.282.996-.678 1.466-1.19l.853-6.945c-.843-.164-1.7-.247-2.558-.247-.485 0-.935.09-1.347.273-.424.19-.8.475-1.097.832-.319.373-.587.843-.804 1.411-.217.568-.373 1.238-.468 2.01-.096.78-.114 1.44-.055 1.984.06.542.185.982.378 1.32.192.338.445.584.76.74.316.157.685.235 1.11.235.667 0 1.255-.141 1.762-.423zm12.245.408c.423.094.607.365.552.814l-.188 1.53h-5.182l.316-2.58 1.006-8.187-1.29-.236c-.424-.093-.607-.364-.553-.814l.189-1.529h5.182l-1.322 10.767.752.136.38.07.158.03v-.001zm.99-14.89c-.033.275-.123.54-.265.78-.282.485-.717.862-1.237 1.072-.264.11-.54.164-.826.164-.265.002-.526-.053-.767-.163-.225-.102-.427-.25-.59-.436-.34-.389-.494-.906-.425-1.417.036-.287.123-.556.262-.807.14-.252.311-.469.515-.65.205-.183.438-.328.698-.436.255-.108.53-.163.807-.163.286 0 .548.055.786.163.238.109.44.253.604.436.164.182.287.399.368.65.082.251.105.52.07.807z" transform="rotate(-.14 3635.423 -4566.536)"/>
                        </g>
                    </g>
                </g>
            </g>
        </g>
    </g>
</svg>
