<svg xmlns="http://www.w3.org/2000/svg" width="163" height="35" viewBox="0 0 163 35">
    <g fill="none" fill-rule="evenodd">
        <g fill="#FFF" fill-rule="nonzero">
            <g>
                <g>
                    <path d="M.987 2.637c.25 0 .467-.091.649-.273.182-.182.273-.398.273-.649 0-.25-.091-.466-.273-.649C1.454.884 1.238.793.987.793c-.25 0-.466.091-.649.273-.182.183-.273.399-.273.65 0 .25.091.466.273.648.183.182.399.273.65.273zm.342 23.32V8.407H.646v17.55h.683zm10.891.41c1.503 0 2.806-.33 3.91-.99 1.104-.66 1.94-1.594 2.51-2.8v3.38h.682V1.374h-.683v10.072c-.592-1.138-1.422-1.997-2.492-2.578-1.07-.58-2.242-.87-3.517-.87-1.411 0-2.63.261-3.653.785-1.025.523-1.873 1.223-2.544 2.1-.672.876-1.172 1.889-1.502 3.038-.33 1.15-.495 2.362-.495 3.637 0 1.206.17 2.338.512 3.397.341 1.058.842 1.991 1.502 2.8.66.808 1.474 1.445 2.441 1.912.968.466 2.077.7 3.33.7zm0-.683c-1.16 0-2.185-.222-3.073-.666-.887-.444-1.627-1.042-2.219-1.793-.592-.75-1.041-1.616-1.349-2.595-.307-.978-.46-2.003-.46-3.072 0-1.025.13-2.066.392-3.125.262-1.058.683-2.014 1.263-2.868.58-.853 1.35-1.547 2.305-2.082.956-.535 2.14-.803 3.55-.803.73 0 1.452.131 2.169.393.717.262 1.36.62 1.93 1.075.568.456 1.03.99 1.382 1.605.353.615.53 1.275.53 1.98v6.249c0 .887-.172 1.678-.513 2.373-.341.694-.808 1.291-1.4 1.792-.592.5-1.275.882-2.048 1.144-.774.262-1.594.393-2.459.393zm17.994.682c.978 0 1.883-.148 2.714-.443.83-.296 1.554-.723 2.168-1.28.615-.558 1.115-1.23 1.502-2.015.387-.786.626-1.668.717-2.646h-.682c-.069.887-.28 1.678-.632 2.373-.353.694-.814 1.291-1.383 1.792-.569.5-1.23.882-1.98 1.144-.751.262-1.56.393-2.424.393-1.047 0-1.98-.183-2.8-.547-.82-.364-1.52-.853-2.1-1.468-.58-.614-1.053-1.331-1.417-2.15-.364-.82-.603-1.697-.717-2.63l14.135-5.155c-.113-.888-.358-1.685-.734-2.39-.375-.706-.859-1.304-1.45-1.793-.593-.49-1.275-.87-2.05-1.144-.773-.273-1.593-.41-2.458-.41-1.41 0-2.629.257-3.653.769s-1.872 1.206-2.544 2.082c-.671.877-1.172 1.895-1.502 3.056-.33 1.161-.495 2.379-.495 3.654 0 1.183.17 2.304.512 3.363.342 1.058.837 1.991 1.485 2.8.65.807 1.457 1.45 2.425 1.928.967.478 2.088.717 3.363.717zm-7.102-8.194v-.614c0-1.184.148-2.31.444-3.38.296-1.07.75-2.015 1.365-2.835.615-.819 1.395-1.468 2.34-1.946.944-.478 2.065-.717 3.362-.717 1.503 0 2.789.404 3.859 1.212 1.07.808 1.764 1.94 2.082 3.398l-13.452 4.882zm24.515 8.194c1.502 0 2.805-.33 3.909-.99 1.104-.66 1.94-1.593 2.51-2.8v3.38h.682V8.408h-.682v3.039c-.592-1.138-1.423-1.997-2.493-2.578-1.07-.58-2.242-.87-3.517-.87-1.41 0-2.629.261-3.653.785-1.024.523-1.872 1.223-2.544 2.1-.671.876-1.172 1.889-1.502 3.038-.33 1.15-.495 2.362-.495 3.637 0 1.206.17 2.338.512 3.397.342 1.058.842 1.991 1.502 2.8.66.808 1.474 1.445 2.442 1.912.967.466 2.077.7 3.329.7zm0-.682c-1.161 0-2.186-.222-3.073-.666-.888-.444-1.628-1.042-2.22-1.793-.591-.75-1.04-1.616-1.348-2.595-.308-.978-.461-2.003-.461-3.072 0-1.025.13-2.066.392-3.125.262-1.058.683-2.014 1.264-2.868.58-.853 1.348-1.547 2.304-2.082.956-.535 2.14-.803 3.551-.803.729 0 1.451.131 2.168.393.717.262 1.36.62 1.93 1.075.569.456 1.03.99 1.382 1.605.353.615.53 1.275.53 1.98v6.249c0 .887-.171 1.678-.513 2.373-.341.694-.808 1.291-1.4 1.792-.591.5-1.274.882-2.048 1.144-.774.262-1.593.393-2.458.393zm15.432.273c.342 0 .649-.273.649-.649V12.675h3.005c.341 0 .614-.273.614-.615V9.534c0-.376-.273-.649-.614-.649h-3.005V6.837c0-1.366.512-2.39 1.81-2.39.717 0 1.331.204 1.912.512.307.17.682.034.853-.273l1.263-2.493c.171-.307.035-.683-.239-.853-1.195-.65-2.355-.99-3.79-.99-3.892 0-5.77 2.492-5.77 6.213v2.322h-2.526c-.342 0-.649.273-.649.649v2.526c0 .342.307.615.649.615h2.526v12.633c0 .376.274.649.615.649h2.697zm13.897.068c1.604 0 3.277-.82 4.506-1.741v1.024c0 .376.308.649.65.649h2.662c.376 0 .649-.273.649-.649V9.534c0-.376-.273-.649-.649-.649h-2.663c-.341 0-.649.273-.649.649v1.024c-1.229-.922-2.868-1.741-4.438-1.741-4.507 0-8.229 3.892-8.229 8.604 0 4.917 3.415 8.604 8.16 8.604zm.204-4.131c-2.253 0-4.233-2.049-4.233-4.473s1.98-4.473 4.233-4.473c2.425 0 4.166 2.049 4.166 4.473s-1.741 4.473-4.166 4.473zm19.155 4.131c2.253 0 4.302-.99 5.736-2.527.239-.273.273-.648 0-.887l-1.98-1.912c-.274-.24-.65-.273-.922 0-.683.82-1.708 1.297-2.8 1.297-2.39.034-4.234-1.98-4.234-4.507 0-2.492 1.605-4.54 4.029-4.54.956 0 1.775.375 2.458.853.308.239.717.17.922-.137l1.537-2.424c.204-.307.102-.683-.171-.854-1.468-1.024-3.073-1.57-4.746-1.57-4.78.068-8.16 4.234-8.16 8.672 0 4.883 3.619 8.57 8.33 8.536zm13.418-.068c.375 0 .649-.273.649-.649V12.675h3.004c.342 0 .615-.273.615-.615V9.534c0-.376-.273-.649-.615-.649h-3.004V4.412c0-.375-.274-.648-.65-.648h-2.662c-.342 0-.649.273-.649.648v4.473h-2.527c-.341 0-.614.273-.614.649v2.526c0 .342.273.615.614.615h4.79l-2.263 1.925v10.708c0 .376.307.649.649.649h2.663zm13.862.068c4.61 0 8.228-3.79 8.228-8.604 0-4.814-3.585-8.604-8.194-8.604-4.61 0-8.263 3.79-8.263 8.604 0 4.814 3.62 8.604 8.229 8.604zm0-4.029c-2.356 0-4.097-2.048-4.097-4.575s1.741-4.575 4.097-4.575c2.39 0 4.131 2.048 4.131 4.575s-1.741 4.575-4.131 4.575zm14.135 3.96c.342 0 .615-.272.615-.648l.068-8.775c0-2.048 1.81-3.824 3.79-3.824.58 0 1.127.17 1.502.342.342.17.717 0 .854-.342l.956-2.595c.102-.273-.034-.614-.307-.785-.65-.341-1.4-.512-2.322-.512-1.707 0-3.244.683-4.541 1.639v-.922c0-.376-.273-.649-.615-.649h-2.697c-.342 0-.649.273-.649.649v15.774c0 .376.307.649.649.649h2.697zm13.692 8.537c.341 0 .648-.171.853-.65l10.346-24.07c.204-.444-.103-.888-.58-.888h-3.006c-.307 0-.478.205-.648.649l-3.927 9.287-3.858-9.253c-.205-.478-.41-.683-.717-.683h-3.004c-.478 0-.752.444-.58.888l5.838 14.135-4.132 9.73c-.205.445.069.855.547.855h2.868z" transform="translate(-1047 -135) translate(1047 135)"/>
                </g>
            </g>
        </g>
    </g>
</svg>
