<svg xmlns="http://www.w3.org/2000/svg" width="147" height="469" viewBox="0 0 147 469">
    <g fill="none" fill-rule="evenodd">
        <g>
            <g>
                <g>
                    <path fill="#FFCB00" fill-rule="nonzero" d="M81.598 109.414c40.257 0 72.89-32.564 72.89-72.734H8.709c0 40.17 32.634 72.734 72.89 72.734z" transform="translate(-1369 -290) rotate(90 613.424 903.228) translate(.196 .651) rotate(-90 81.598 73.047)"/>
                    <path fill="#00C39F" d="M22.66 93.739c24.672 0 44.674-20.072 44.674-44.832h-89.35c0 24.76 20.002 44.832 44.675 44.832z" transform="translate(-1369 -290) rotate(90 613.424 903.228) translate(.196 .651) rotate(-90 22.66 71.323)"/>
                </g>
                <g>
                    <path fill="#FF7D3E" d="M36.524 155.578c40.342 0 73.047-32.704 73.047-73.047 0-40.343-32.705-73.047-73.047-73.047v146.094z" transform="translate(-1369 -290) rotate(90 613.424 903.228) translate(146.696 28.151) rotate(90 73.047 82.53)"/>
                    <path fill="#FF2A68" fill-rule="nonzero" d="M119.133 45.929C119.133 20.563 98.57 0 73.203 0 47.839 0 27.276 20.563 27.276 45.929h91.858z" transform="translate(-1369 -290) rotate(90 613.424 903.228) translate(146.696 28.151)"/>
                </g>
                <g fill-rule="nonzero">
                    <path fill="#FF2A68" d="M73.047 0v26.962h-.157c-25.365 0-45.928 20.563-45.928 45.928 0 25.366 20.563 45.93 45.928 45.93l.157-.002v27.276C32.704 146.094 0 113.39 0 73.047 0 32.704 32.704 0 73.047 0z" transform="translate(-1369 -290) rotate(90 613.424 903.228) translate(322.549 1)"/>
                    <path fill="#263DA8" d="M73.047 0v26.962h-.157c-25.365 0-45.928 20.563-45.928 45.928 0 25.366 20.563 45.93 45.928 45.93l.157-.002v27.276C32.704 146.094 0 113.39 0 73.047 0 32.704 32.704 0 73.047 0z" transform="translate(-1369 -290) rotate(90 613.424 903.228) translate(322.549 1)"/>
                    <path fill="#FFC4AF" d="M73.047 0c40.343 0 73.047 32.704 73.047 73.047 0 40.343-32.704 73.047-73.047 73.047v-27.276l.603-.005c25.015-.406 45.17-20.81 45.17-45.923 0-25.313-20.48-45.844-45.773-45.928z" transform="translate(-1369 -290) rotate(90 613.424 903.228) translate(322.549 1)"/>
                </g>
            </g>
        </g>
    </g>
</svg>
