<svg xmlns="http://www.w3.org/2000/svg" width="177" height="41" viewBox="0 0 177 41">
    <g fill="none" fill-rule="evenodd">
        <g fill-rule="nonzero">
            <g>
                <g>
                    <g>
                        <path fill="#000" d="M8.56 38.97V23.53c0-1.016.202-1.926.605-2.732.403-.805.945-1.435 1.628-1.89.683-.456 1.48-.683 2.39-.683 1.295 0 2.31.481 3.046 1.444.735.963 1.103 2.285 1.103 3.965V38.97c0 .174.141.316.315.316h7.93c.175 0 .316-.142.316-.316V23.53c0-1.016.201-1.926.604-2.732.402-.805.945-1.435 1.628-1.89.683-.456 1.48-.683 2.39-.683 1.295 0 2.31.481 3.046 1.444.735.963 1.103 2.285 1.103 3.965V38.97c0 .174.14.316.315.316h7.93c.175 0 .316-.142.316-.316V22.584c0-2.486-.403-4.63-1.208-6.434-.806-1.803-1.961-3.195-3.467-4.175-1.505-.98-3.274-1.47-5.304-1.47-2.031 0-3.834.472-5.41 1.417-1.576.946-2.801 2.171-3.676 3.677-.806-1.611-1.917-2.863-3.336-3.756-1.418-.892-3.037-1.339-4.858-1.339-1.715 0-3.256.403-4.622 1.208-1.365.805-2.433 1.89-3.203 3.256v-3.36c0-.175-.141-.316-.315-.316H.316c-.175 0-.316.141-.316.315V38.97c0 .174.141.316.315.316h7.93c.175 0 .316-.142.316-.316zm52.312 1.103c2.135 0 4.122-.376 5.96-1.129 1.839-.753 3.432-1.794 4.78-3.125 1.348-1.33 2.399-2.897 3.151-4.7.753-1.804 1.13-3.756 1.13-5.856 0-2.101-.368-4.045-1.103-5.83-.736-1.786-1.777-3.353-3.125-4.7-1.348-1.349-2.924-2.39-4.727-3.126-1.803-.735-3.755-1.103-5.856-1.103-2.136 0-4.123.377-5.961 1.13-1.839.752-3.432 1.803-4.78 3.15-1.348 1.349-2.398 2.924-3.151 4.727-.753 1.804-1.13 3.756-1.13 5.857 0 2.1.368 4.044 1.104 5.83.735 1.785 1.777 3.343 3.125 4.674 1.348 1.33 2.923 2.363 4.727 3.098 1.803.736 3.755 1.103 5.856 1.103zm.105-7.72c-1.156 0-2.206-.307-3.152-.92-.945-.612-1.689-1.452-2.232-2.52-.542-1.068-.814-2.267-.814-3.598 0-1.366.272-2.582.814-3.65.543-1.068 1.287-1.908 2.232-2.521.946-.613 1.996-.92 3.152-.92 1.155 0 2.206.307 3.15.92.946.613 1.69 1.453 2.233 2.52.543 1.069.814 2.285.814 3.651 0 1.33-.271 2.53-.814 3.598-.543 1.068-1.287 1.908-2.232 2.52-.945.613-1.996.92-3.151.92zM87.29 38.97V25.525l9.57 13.627c.058.084.155.134.257.134h9.754c.174 0 .315-.142.315-.316 0-.069-.023-.136-.065-.191L95.535 23.687 105.8 11.813c.114-.131.1-.33-.032-.444-.058-.05-.13-.077-.206-.077h-8.88c-.093 0-.182.042-.242.114l-9.15 11.073V.315c0-.174-.14-.315-.315-.315h-7.93c-.174 0-.315.141-.315.315V38.97c0 .174.14.316.315.316h7.93c.174 0 .316-.142.316-.316zm33.245 1.103c1.996 0 3.87-.324 5.62-.971 1.75-.648 3.283-1.558 4.596-2.731 1.27-1.135 2.236-2.474 2.9-4.017.032-.075-.002-.162-.077-.195l-.021-.007-7.52-1.968c-.085-.022-.174.008-.226.078-.645.853-1.378 1.497-2.2 1.933-.857.455-1.846.683-2.967.683-1.505 0-2.748-.464-3.729-1.392-.98-.928-1.645-2.25-1.995-3.965h19.012c.174 0 .315-.141.315-.315V25.63c0-2.276-.332-4.342-.998-6.197-.665-1.856-1.61-3.45-2.836-4.78-1.225-1.33-2.696-2.354-4.412-3.072-1.715-.718-3.624-1.077-5.724-1.077-1.996 0-3.852.368-5.568 1.103-1.715.735-3.212 1.768-4.49 3.099-1.278 1.33-2.276 2.888-2.994 4.674-.718 1.786-1.076 3.73-1.076 5.83 0 2.17.35 4.167 1.05 5.987.7 1.821 1.698 3.397 2.994 4.727 1.295 1.33 2.818 2.355 4.569 3.073 1.75.717 3.676 1.076 5.777 1.076zm4.885-18.014h-10.504c.315-1.646.936-2.915 1.864-3.808.928-.893 2.092-1.34 3.493-1.34 1.365 0 2.494.447 3.387 1.34.893.893 1.48 2.162 1.76 3.808zm19.958 16.911V23.424c0-.98.21-1.864.63-2.652.42-.788.989-1.41 1.707-1.865.718-.455 1.55-.682 2.495-.682 1.33 0 2.372.481 3.124 1.444.753.963 1.13 2.267 1.13 3.913V38.97c0 .174.14.316.315.316h7.93c.174 0 .316-.142.316-.316V22.374c0-2.416-.412-4.508-1.235-6.276-.822-1.769-1.978-3.143-3.466-4.123-1.488-.98-3.23-1.47-5.226-1.47-1.82 0-3.431.402-4.832 1.207-1.4.805-2.503 1.89-3.309 3.256v-3.36c0-.175-.14-.316-.315-.316h-7.51c-.174 0-.315.141-.315.315V38.97c0 .174.14.316.315.316h7.93c.174 0 .316-.142.316-.316z" transform="translate(-110 -63) translate(-1) translate(0 3) translate(111 60)"/>
                        <path fill="#263DA8" d="M171.585 39.496c.98 0 1.865-.237 2.653-.71.788-.472 1.41-1.102 1.864-1.89.455-.788.683-1.655.683-2.6 0-.945-.228-1.812-.683-2.6-.455-.788-1.076-1.418-1.864-1.89-.788-.473-1.672-.71-2.653-.71-.98 0-1.864.237-2.652.71-.788.472-1.41 1.102-1.864 1.89-.456.788-.683 1.655-.683 2.6 0 .945.227 1.812.683 2.6.455.788 1.076 1.418 1.864 1.89.788.473 1.672.71 2.652.71z" transform="translate(-110 -63) translate(-1) translate(0 3) translate(111 60)"/>
                    </g>
                </g>
            </g>
        </g>
    </g>
</svg>
