<svg xmlns="http://www.w3.org/2000/svg" width="32" height="26" viewBox="0 0 32 26">
    <g fill="none" fill-rule="evenodd">
        <g fill="#FFF" fill-rule="nonzero">
            <g>
                <g>
                    <path d="M31.632 3.043c-1.177.516-2.43.858-3.737 1.024 1.345-.803 2.37-2.064 2.853-3.585-1.253.748-2.637 1.276-4.112 1.57C25.446.785 23.749 0 21.899 0c-3.59 0-6.48 2.914-6.48 6.486 0 .514.043 1.009.15 1.48-5.392-.264-10.162-2.848-13.367-6.784-.56.97-.887 2.082-.887 3.278 0 2.246 1.156 4.237 2.88 5.39-1.042-.02-2.064-.323-2.93-.8v.072c0 3.151 2.248 5.769 5.196 6.372-.528.144-1.103.213-1.7.213-.416 0-.835-.024-1.228-.11.84 2.567 3.224 4.456 6.06 4.517-2.207 1.726-5.008 2.766-8.041 2.766-.532 0-1.042-.024-1.552-.09 2.873 1.853 6.277 2.91 9.948 2.91 11.933 0 18.457-9.884 18.457-18.452 0-.287-.01-.564-.023-.839 1.287-.913 2.368-2.054 3.25-3.366z" transform="translate(-75 -1109) translate(75 1109)"/>
                </g>
            </g>
        </g>
    </g>
</svg>
