<svg xmlns="http://www.w3.org/2000/svg" width="56" height="36" viewBox="0 0 56 36">
    <g fill="none" fill-rule="evenodd">
        <g fill="#000" fill-rule="nonzero">
            <g>
                <path d="M23.424 16.195c1.182-.594 2.075-1.256 2.687-1.972 1.09-1.288 1.627-2.996 1.627-5.114 0-2.06-.538-3.822-1.612-5.299C24.332 1.404 21.296.173 17.004.11H0v34.71h15.855c1.786 0 3.441-.153 4.972-.467 1.53-.316 2.854-.897 3.975-1.744.996-.736 1.829-1.65 2.491-2.73 1.046-1.63 1.57-3.476 1.57-5.533 0-1.993-.46-3.69-1.37-5.086-.922-1.395-2.275-2.416-4.069-3.064zM7.014 6.138h7.66c1.683 0 3.07.181 4.16.54 1.26.524 1.89 1.588 1.89 3.21 0 1.456-.481 2.474-1.431 3.047-.958.573-2.2.861-3.723.861H7.015V6.138zm12.111 22.047c-.847.41-2.039.612-3.566.612H7.015V19.54h8.662c1.509.011 2.683.21 3.523.584 1.495.676 2.239 1.915 2.239 3.726 0 2.135-.77 3.573-2.314 4.335zM35 2H50.079V6.32H35zM55.578 18.307c-.314-2.011-1.004-3.78-2.079-5.307-1.178-1.73-2.672-2.996-4.491-3.797-1.812-.804-3.85-1.207-6.121-1.203-3.812 0-6.908 1.192-9.303 3.559C31.196 13.933 30 17.346 30 21.794c0 4.744 1.32 8.171 3.975 10.275 2.644 2.107 5.698 3.156 9.164 3.156 4.196 0 7.46-1.249 9.79-3.74 1.492-1.573 2.335-3.121 2.52-4.64h-6.946c-.403.75-.869 1.337-1.403 1.764-.968.783-2.227 1.175-3.772 1.175-1.47 0-2.715-.324-3.755-.968-1.715-1.032-2.612-2.84-2.726-5.413h18.958c.029-2.217-.042-3.922-.227-5.096zm-18.56.665c.25-1.67.854-2.993 1.815-3.972.961-.975 2.32-1.466 4.06-1.47 1.606 0 2.948.46 4.04 1.381 1.078.93 1.687 2.278 1.812 4.061H37.018z" transform="translate(-1367 -633) translate(1367 633)"/>
            </g>
        </g>
    </g>
</svg>
