<svg xmlns="http://www.w3.org/2000/svg" width="37" height="37" viewBox="0 0 37 37">
    <g fill="none" fill-rule="evenodd">
        <g fill="#000" fill-rule="nonzero">
            <g>
                <path d="M18.432 0C8.269 0 0 8.27 0 18.432c0 10.163 8.27 18.432 18.432 18.432 10.163 0 18.432-8.27 18.432-18.432C36.864 8.269 28.594 0 18.432 0zm0 34.56c-8.893 0-16.128-7.237-16.128-16.128 0-8.893 7.235-16.128 16.128-16.128 8.891 0 16.128 7.235 16.128 16.128 0 8.891-7.237 16.128-16.128 16.128z" transform="translate(-1581 -632) translate(1581 632)"/>
                <path d="M18.432 4.608c-.968 0-1.912.101-2.825.29 1.678 2.378 3.2 4.853 4.541 7.417 2.537-1.182 4.924-2.707 7.104-4.527-2.394-1.987-5.468-3.18-8.82-3.18zM28.894 9.414c-2.37 1.998-4.978 3.654-7.748 4.95.606 1.262 1.168 2.54 1.689 3.84 3.06-.63 6.244-.687 9.4-.164-.092-3.294-1.331-6.299-3.34-8.626zM13.294 5.606c-4.15 1.663-7.297 5.276-8.32 9.711 4.475.191 8.903-.555 13.025-2.129-1.385-2.629-2.954-5.163-4.705-7.582zM19.031 15.273c-3.99 1.555-8.253 2.403-12.587 2.403-.596 0-1.195-.037-1.795-.069-.016.274-.041.546-.041.825 0 3.394 1.228 6.5 3.258 8.905 3.32-4.122 7.783-7.076 12.723-8.56-.482-1.184-1.003-2.35-1.558-3.504zM23.68 20.386c1.1 3.064 1.961 6.214 2.593 9.425 3.115-2.15 5.29-5.543 5.836-9.464-2.825-.5-5.68-.477-8.428.039zM21.418 20.92c-4.645 1.357-8.84 4.145-11.916 8.055 2.41 2.044 5.522 3.281 8.93 3.281 2.046 0 3.984-.456 5.73-1.256-.634-3.442-1.555-6.81-2.744-10.08z" transform="translate(-1581 -632) translate(1581 632)"/>
            </g>
        </g>
    </g>
</svg>
