<svg xmlns="http://www.w3.org/2000/svg" width="26" height="26" viewBox="0 0 26 26">
    <g fill="none" fill-rule="evenodd">
        <g fill="#FFF" fill-rule="nonzero">
            <g>
                <g>
                    <path d="M12.902 0C5.788 0 0 5.788 0 12.902c0 7.114 5.788 12.903 12.902 12.903 7.114 0 12.903-5.789 12.903-12.903C25.805 5.788 20.016 0 12.902 0zm0 24.192c-6.225 0-11.29-5.066-11.29-11.29 0-6.225 5.065-11.29 11.29-11.29 6.224 0 11.29 5.065 11.29 11.29 0 6.224-5.066 11.29-11.29 11.29z" transform="translate(-276 -1110) translate(276 1110)"/>
                    <path d="M12.902 3.226c-.677 0-1.338.07-1.977.203 1.174 1.664 2.24 3.396 3.179 5.191 1.776-.827 3.446-1.895 4.972-3.169-1.676-1.39-3.827-2.225-6.174-2.225zM20.226 6.59c-1.66 1.398-3.485 2.558-5.424 3.464.424.884.818 1.78 1.182 2.689 2.142-.44 4.371-.48 6.58-.115-.064-2.306-.932-4.41-2.338-6.038zM9.306 3.924C6.4 5.088 4.198 7.617 3.482 10.722c3.132.134 6.232-.389 9.117-1.49-.97-1.84-2.067-3.615-3.293-5.308zM13.322 10.691c-2.794 1.089-5.777 1.682-8.811 1.682-.418 0-.837-.025-1.256-.048-.012.192-.03.382-.03.577 0 2.376.86 4.55 2.281 6.234 2.324-2.885 5.448-4.953 8.906-5.992-.337-.829-.702-1.645-1.09-2.453zM16.576 14.27c.77 2.145 1.373 4.35 1.815 6.598 2.18-1.505 3.703-3.88 4.085-6.625-1.977-.35-3.976-.334-5.9.027zM14.993 14.644c-3.252.95-6.189 2.902-8.342 5.639 1.687 1.43 3.866 2.296 6.251 2.296 1.433 0 2.789-.32 4.011-.879-.443-2.41-1.088-4.767-1.92-7.056z" transform="translate(-276 -1110) translate(276 1110)"/>
                </g>
            </g>
        </g>
    </g>
</svg>
