<?xml version="1.0" encoding="UTF-8"?>
<svg width="90px" height="36px" viewBox="0 0 90 36" version="1.1" xmlns="http://www.w3.org/2000/svg" xmlns:xlink="http://www.w3.org/1999/xlink">
    <!-- Generator: Sketch 60.1 (88133) - https://sketch.com -->
    <title>5e349c95d8d0c2121b0d4ecd_Fast-LogoWhite</title>
    <desc>Created with Sketch.</desc>
    <g id="Final-Website-😻" stroke="none" stroke-width="1" fill="none" fill-rule="evenodd">
        <g id="Our-Partners" transform="translate(-1263.000000, -4241.000000)" fill="#000000" fill-rule="nonzero">
            <g id="5e349c95d8d0c2121b0d4ecd_Fast-LogoWhite" transform="translate(1263.000000, 4241.000000)">
                <path d="M21.99525,6 L6.900465,6 L6.900465,14.38017 L19.98255,14.38017 L19.98255,20.3802 L6.900465,20.3802 L6.900465,35.40495 L0,35.40495 L0,2.87604 C0,2.016525 0.28752,1.3223145 0.8625585,0.7933905 C1.4375985,0.2644635 2.12445,0 2.92311,0 L21.99525,0 L21.99525,6 Z" id="Path"></path>
                <path d="M33.90255,9.966945 C37.1292,9.966945 39.70095,10.876035 41.61765,12.694215 C43.5345,14.479335 44.49285,17.0082 44.49285,20.28105 L44.49285,35.40495 L38.74245,35.40495 L38.74245,32.18175 C36.9216,34.72725 34.33395,36 30.9795,36 C28.51965,36 26.523,35.3058 24.98955,33.9174 C23.48805,32.49585 22.7373,30.62805 22.7373,28.314 C22.7373,25.47105 23.83935,23.40495 26.04375,22.1157 C28.248,20.79345 31.0434,20.13225 34.42965,20.13225 C35.86725,20.13225 37.22505,20.2314 38.5029,20.4297 L38.5029,20.0826 C38.5029,18.5289 38.0397,17.3553 37.1133,16.56195 C36.18675,15.7356 34.9569,15.32235 33.42345,15.32235 C30.9315,15.32235 28.5036,16.2645 26.1396,18.1488 L23.36025,13.93389 C26.0757,11.289255 29.58975,9.966945 33.90255,9.966945 Z M32.5608,30.9918 C34.28595,30.9918 35.6757,30.3801 36.7299,29.157 C37.7841,27.9339 38.3751,26.34705 38.5029,24.39675 C37.257,24.29745 36.05895,24.24795 34.9089,24.24795 C31.1073,24.24795 29.2065,25.45455 29.2065,27.86775 C29.2065,28.7934 29.50995,29.55375 30.117,30.1488 C30.7239,30.7107 31.53855,30.9918 32.5608,30.9918 Z" id="Shape"></path>
                <path d="M58.104,35.95035 C53.95095,35.95035 50.61255,34.69425 48.0888,32.18175 L50.67645,27.9174 C53.0085,29.8677 55.38855,30.843 57.81645,30.843 C58.8708,30.843 59.74935,30.62805 60.4521,30.1983 C61.18695,29.76855 61.5543,29.1735 61.5543,28.41315 C61.5543,28.1487 61.5063,27.9009 61.41045,27.66945 C61.31475,27.438 61.155,27.2232 60.93135,27.02475 C60.73965,26.82645 60.54795,26.66115 60.35625,26.52885 C60.16455,26.3967 59.87715,26.2479 59.49375,26.0826 C59.11035,25.9173 58.79085,25.80165 58.53525,25.7355 C58.31175,25.63635 57.94425,25.5042 57.4332,25.3389 C56.95395,25.1736 56.6025,25.0578 56.379,24.9918 C54.14265,24.1983 52.4175,23.2728 51.20355,22.21485 C50.02155,21.15705 49.43055,19.66935 49.43055,17.75205 C49.43055,15.30585 50.325,13.40496 52.11405,12.04959 C53.93505,10.66116 56.2671,9.966945 59.11035,9.966945 C62.56065,9.966945 65.56365,10.925625 68.11935,12.84297 L65.62755,17.05785 C63.42315,15.66945 61.3467,14.975205 59.3979,14.975205 C58.3437,14.975205 57.4971,15.19005 56.8581,15.6198 C56.21925,16.01655 55.89975,16.54545 55.89975,17.20665 C55.89975,17.73555 56.1393,18.21495 56.61855,18.6447 C57.0978,19.0413 57.52905,19.32225 57.9123,19.48755 C58.32765,19.61985 59.0625,19.8678 60.1167,20.2314 C61.20285,20.595 62.0016,20.8761 62.51265,21.0744 C63.0558,21.2727 63.7746,21.6198 64.66905,22.1157 C65.56365,22.57845 66.21855,23.05785 66.63375,23.55375 C67.08105,24.0165 67.48035,24.6447 67.8318,25.43805 C68.18325,26.1984 68.3589,27.0579 68.3589,28.01655 C68.3589,30.4959 67.3686,32.44635 65.38785,33.86775 C63.40725,35.25615 60.9792,35.95035 58.104,35.95035 Z" id="Path"></path>
                <path d="M87.93945,28.6116 L90,33.4215 C87.85965,35.1075 85.3518,35.95035 82.4766,35.95035 C79.88895,35.95035 77.87625,35.157 76.43865,33.5703 C75.00105,31.98345 74.28225,29.75205 74.28225,26.8761 L74.28225,15.2727 L70.68825,15.2727 L70.68825,10.61157 L74.28225,10.61157 L74.28225,2.925615 L80.7993,2.925615 L80.7993,10.61157 L88.5624,10.61157 L88.5624,15.2727 L80.7993,15.2727 L80.7993,26.28105 C80.7993,27.6033 81.1188,28.54545 81.7578,29.1075 C82.4286,29.6694 83.2113,29.95035 84.1059,29.95035 C85.3518,29.95035 86.62965,29.5041 87.93945,28.6116 Z" id="Path"></path>
            </g>
        </g>
    </g>
</svg>