<svg xmlns="http://www.w3.org/2000/svg" width="167" height="54" viewBox="0 0 167 54">
    <g fill="none" fill-rule="evenodd">
        <g fill="#0E1529" fill-rule="nonzero">
            <g>
                <path d="M35.017 12.29L42.219 12.29 42.219 41.572 35.017 41.572zM48.429 12.29h6.64v4.097c.993-1.638 2.804-3.32 4.529-3.967 1.466-.518 3.019-.82 4.571-.776 2.458 0 4.485.517 6.08 1.509 1.596.992 2.804 2.415 3.537 4.097.82 1.897 1.207 3.967 1.164 6.037V41.53h-7.245V24.495c0-2.286-.474-3.968-1.466-5.132-.992-1.165-2.501-1.725-4.528-1.725-1.984 0-3.493.604-4.528 1.768-1.035 1.164-1.553 2.89-1.553 5.089v17.034H48.43V12.29zM99.92 12.894c1.81.733 3.406 1.94 4.527 3.58 1.078 1.638 1.596 3.579 1.553 5.52v19.578h-6.167c0-1.294-.043-2.588-.043-3.881-.863 1.035-1.854 1.94-3.019 2.673-1.94 1.165-4.183 1.812-6.425 1.812-1.984.043-3.925-.388-5.736-1.208-1.552-.733-2.89-1.897-3.795-3.364-.905-1.509-1.38-3.277-1.337-5.045 0-2.976 1.035-5.132 3.062-6.469 2.027-1.337 4.7-1.983 7.978-1.983h8.28v-1.682c.043-.906-.216-1.812-.69-2.588-.216-.345-.517-.647-.82-.905-1.38-1.122-3.234-1.208-4.441-1.251-1.725-.043-3.45.259-5.089.862-1.51.561-2.89 1.38-4.097 2.415l-3.838-4.312c1.639-1.552 3.58-2.846 5.693-3.752 2.328-.905 4.83-1.337 7.33-1.294 2.416 0 4.83.432 7.073 1.294zM98.15 32.473c.259-.475.431-.95.56-1.423.173-.561.303-1.165.346-1.769h-8.15c-1.338 0-2.33.302-3.063.863-.733.604-1.12 1.51-1.078 2.458 0 .604.13 1.208.388 1.725.216.388.518.733.863 1.035 1.164.992 2.63 1.035 3.407 1.078 1.164.043 2.328-.216 3.363-.733.777-.388 1.51-.949 2.07-1.596.561-.474.95-1.035 1.294-1.638zM111.39 12.29h6.641v4.097c.345-.647.777-1.25 1.208-1.811.776-.949 1.725-1.639 2.846-2.113 1.25-.518 2.588-.776 3.968-.733.43 0 .862 0 1.25.043v6.77c-1.294-.258-2.63-.301-3.924-.172-1.682.172-2.372.604-2.76.906-.302.258-.604.517-.82.862-.733 1.078-1.12 2.76-1.12 5.003v16.473h-7.202V12.29h-.087zM140.887 40.753L129.416 12.247 137.265 12.247 144.337 31.998 144.941 31.998 152.143 12.247 159.992 12.247 143.432 53.69 135.626 53.69zM23.2 19.45v-.173c1.467-.863 2.718-2.07 3.667-3.493.905-1.424 1.38-3.235 1.38-5.434 0-3.45-1.251-6.08-3.795-7.806C22.942 1.51 21.217.82 19.406.561c-1.854-.302-3.752-.432-5.65-.432H7.462v6.598h6.425c1.035 0 2.07.087 3.105.26.906.129 1.725.56 2.415 1.164.906.819 1.38 2.07 1.38 3.708 0 1.51-.345 2.63-1.078 3.32-.647.69-1.51 1.122-2.458 1.295-1.121.172-2.243.215-3.32.215H7.503V6.727H0v34.845h15.697c4.226 0 7.504-.949 9.919-2.803 1.423-1.078 2.501-2.501 3.191-4.14.69-1.682 1.035-3.493 1.035-5.304-.043-4.917-2.242-8.15-6.641-9.876zm-2.587 13.67c-.862.776-1.94 1.293-3.104 1.509-1.208.216-2.415.302-3.623.302H7.461V23.287h7.934c1.079 0 2.157.043 3.235.216.992.172 1.854.69 2.544 1.423.776.82 1.208 2.07 1.208 3.752-.044 1.983-.647 3.45-1.769 4.442zM35.017.043H42.219V6.727H35.017zM159.474 34.888H166.676V41.614999999999995H159.474z" transform="translate(-721 -6291) translate(721 6291)"/>
            </g>
        </g>
    </g>
</svg>
