<svg xmlns="http://www.w3.org/2000/svg" width="225" height="101" viewBox="0 0 225 101">
    <g fill="none" fill-rule="evenodd">
        <g>
            <g>
                <g font-family="Futura-Bold, Futura" font-size="48.157" font-weight="bold" letter-spacing="18.522">
                    <text fill="#86ECAE" transform="translate(-686 -6505) translate(668 6490) rotate(-45 40.333 76.89)">
                        <tspan x="15.011" y="95.39">C</tspan>
                    </text>
                    <text fill="#4C43FF" transform="translate(-686 -6505) translate(668 6490) rotate(-29 84.06 43.237)">
                        <tspan x="52.527" y="61.737">O</tspan>
                    </text>
                    <text fill="#F16CA5" transform="translate(-686 -6505) translate(668 6490)">
                        <tspan x="116.404" y="51.482">L</tspan>
                    </text>
                    <text fill="#EBF05A" transform="translate(-686 -6505) translate(668 6490) rotate(22 189.346 45.948)">
                        <tspan x="157.812" y="64.448">O</tspan>
                    </text>
                    <text fill="#86E5EC" transform="translate(-686 -6505) translate(668 6490) rotate(50 230.522 83.43)">
                        <tspan x="204.189" y="101.93">R</tspan>
                    </text>
                </g>
                <g fill="#000" font-family="FuturaBQ-BoldOutline, Futura BQ" font-size="48.157" letter-spacing="18.522">
                    <text transform="translate(-686 -6505) translate(668 6490) translate(7.418 5.905) rotate(-45 37.768 71.335)">
                        <tspan x="13.458" y="87.835">C</tspan>
                    </text>
                    <text transform="translate(-686 -6505) translate(668 6490) translate(7.418 5.905) rotate(-29 78.813 39.614)">
                        <tspan x="49.495" y="56.114">O</tspan>
                    </text>
                    <text transform="translate(-686 -6505) translate(668 6490) translate(7.418 5.905)">
                        <tspan x="111.609" y="46.633">L</tspan>
                    </text>
                    <text transform="translate(-686 -6505) translate(668 6490) translate(7.418 5.905) rotate(22 181.479 41.458)">
                        <tspan x="152.16" y="57.958">O</tspan>
                    </text>
                    <text transform="translate(-686 -6505) translate(668 6490) translate(7.418 5.905) rotate(50 220.318 74.984)">
                        <tspan x="196.008" y="91.484">R</tspan>
                    </text>
                </g>
                <text fill="#000" font-family="Avenir-Light, Avenir" font-size="14.818" font-weight="300" letter-spacing="2.47" transform="translate(-686 -6505) translate(668 6490)">
                    <tspan x="117.246" y="87.977">ME</tspan>
                </text>
                <text fill="#000" font-family="Avenir-Light, Avenir" font-size="14.818" font-weight="300" letter-spacing="14.818" transform="translate(-686 -6505) translate(668 6490)">
                    <tspan x="79.931" y="114.278">SASSY</tspan>
                </text>
            </g>
        </g>
    </g>
</svg>
