<?xml version="1.0" encoding="UTF-8"?>
<svg width="517px" height="646px" viewBox="0 0 517 646" version="1.1" xmlns="http://www.w3.org/2000/svg" xmlns:xlink="http://www.w3.org/1999/xlink">
    <!-- Generator: Sketch 60.1 (88133) - https://sketch.com -->
    <title>Community</title>
    <desc>Created with Sketch.</desc>
    <g id="MVP-Complete" stroke="none" stroke-width="1" fill="none" fill-rule="evenodd">
        <g id="Community" transform="translate(-1166.000000, -128.000000)" fill-rule="nonzero">
            <g id="Group-11" transform="translate(1166.000000, 75.000000)">
                <path d="M349.5,0 L349.502139,129.00126 C349.251524,129.00042 349.000811,129 348.75,129 C227.385426,129 129,227.385426 129,348.75 C129,470.114574 227.385426,568.5 348.75,568.5 L349.5,568.494 L349.5,699 C156.47648,699 2.84217094e-13,542.52352 2.84217094e-13,349.5 C2.84217094e-13,156.47648 156.47648,0 349.5,0 Z" id="Oval-2" fill="#FF2A68"></path>
                <path d="M349.5,0 L349.502139,129.00126 C349.251524,129.00042 349.000811,129 348.75,129 C227.385426,129 129,227.385426 129,348.75 C129,470.114574 227.385426,568.5 348.75,568.5 L349.5,568.494 L349.5,699 C156.47648,699 2.84217094e-13,542.52352 2.84217094e-13,349.5 C2.84217094e-13,156.47648 156.47648,0 349.5,0 Z" id="Oval-2" fill="#FF2A68"></path>
                <path d="M349.5,0 C411.654902,0 470.020299,16.224801 520.591939,44.6701521 C627.071726,104.562513 699,218.631382 699,349.5 C699,542.52352 542.52352,699 349.5,699 L349.5,699 L349.499958,568.494 L352.383968,568.47056 C472.072444,566.529994 568.5,468.900928 568.5,348.75 C568.5,227.635638 470.51983,129.405772 349.500343,129.001254 Z" id="Oval-3" fill="#FFC4AF"></path>
            </g>
        </g>
    </g>
</svg>