<svg xmlns="http://www.w3.org/2000/svg" width="147" height="497" viewBox="0 0 147 497">
    <g fill="none" fill-rule="evenodd">
        <g>
            <g>
                <g fill-rule="nonzero">
                    <path fill="#FF2A68" d="M73.278 0v27.047h-.158c-25.445 0-46.073 20.628-46.073 46.073 0 25.446 20.628 46.074 46.073 46.074l.157-.002v27.363C32.808 146.555 0 113.748 0 73.278S32.807 0 73.278 0z" transform="translate(-1368 -261) translate(1368 261) translate(0 175)"/>
                    <path fill="#FF2A68" d="M73.278 0v27.047h-.158c-25.445 0-46.073 20.628-46.073 46.073 0 25.446 20.628 46.074 46.073 46.074l.157-.002v27.363C32.808 146.555 0 113.748 0 73.278S32.807 0 73.278 0z" transform="translate(-1368 -261) translate(1368 261) translate(0 175)"/>
                    <path fill="#FFCB00" d="M73.278 0c40.47 0 73.277 32.807 73.277 73.278 0 40.47-32.807 73.277-73.277 73.277l-.001-27.363.605-.004c25.095-.407 45.312-20.876 45.312-46.068 0-25.393-20.543-45.989-45.917-46.073z" transform="translate(-1368 -261) translate(1368 261) translate(0 175)"/>
                </g>
                <g>
                    <path fill="#263DA8" d="M73.5 147c40.593 0 73.5-32.907 73.5-73.5H0C0 114.093 32.907 147 73.5 147z" transform="translate(-1368 -261) translate(1368 261) rotate(-90 73.5 73.5)"/>
                    <path fill="#00C39F" d="M73.5 73.5C114.093 73.5 147 40.593 147 0H0c0 40.593 32.907 73.5 73.5 73.5z" transform="translate(-1368 -261) translate(1368 261) rotate(-90 73.5 73.5) matrix(1 0 0 -1 0 73.5)"/>
                </g>
                <g fill-rule="nonzero">
                    <path fill="#FF7D3E" d="M81.67 109.899c40.506 0 73.342-32.593 73.342-72.798H8.328c0 40.205 32.836 72.798 73.342 72.798z" transform="translate(-1368 -261) translate(1368 261) translate(28 350) rotate(-90 81.67 73.5)"/>
                    <path fill="#FFC4AF" d="M22.679 94.2c24.826 0 44.952-20.089 44.952-44.87h-89.904c0 24.781 20.126 44.87 44.952 44.87z" transform="translate(-1368 -261) translate(1368 261) translate(28 350) rotate(-90 22.679 71.765)"/>
                </g>
            </g>
        </g>
    </g>
</svg>
