<svg xmlns="http://www.w3.org/2000/svg" width="147" height="484" viewBox="0 0 147 484">
    <g fill="none" fill-rule="evenodd">
        <g>
            <g>
                <g>
                    <path fill="#FF7D3E" d="M73.395 146.79c40.535 0 73.395-32.86 73.395-73.395H0c0 40.535 32.86 73.395 73.395 73.395z" transform="translate(-1367 -274) rotate(-90 1062.5 -304.5)"/>
                    <path fill="#FFCB00" d="M73.395 73.395c40.535 0 73.395-32.86 73.395-73.395H0c0 40.535 32.86 73.395 73.395 73.395z" transform="translate(-1367 -274) rotate(-90 1062.5 -304.5) matrix(1 0 0 -1 0 73.395)"/>
                </g>
                <g>
                    <path fill="#FF2A68" d="M36.697 156.319c40.535 0 73.395-32.86 73.395-73.395S77.233 9.529 36.698 9.529v146.79z" transform="translate(-1367 -274) rotate(-90 1062.5 -304.5) rotate(90 242 242) rotate(90 73.395 82.924)"/>
                    <path fill="#FFC4AF" fill-rule="nonzero" d="M119.7 46.148C119.7 20.66 99.04 0 73.552 0 48.066 0 27.405 20.66 27.405 46.148H119.7z" transform="translate(-1367 -274) rotate(-90 1062.5 -304.5) rotate(90 242 242)"/>
                </g>
                <g fill-rule="nonzero">
                    <path fill="#00C39F" d="M110.25 110.25c40.535 0 73.395-32.86 73.395-73.395H36.855c0 40.535 32.86 73.395 73.395 73.395z" transform="translate(-1367 -274) rotate(-90 1062.5 -304.5) translate(176) rotate(-90 110.25 73.552)"/>
                    <path fill="#263DA8" d="M47.822 121.275c19.863 0 37.882-7.903 51.088-20.738L45.92 47.88h-71.435c0 40.535 32.834 73.395 73.337 73.395z" transform="translate(-1367 -274) rotate(-90 1062.5 -304.5) translate(176) scale(-1 1) rotate(-90 0 121.275)"/>
                </g>
            </g>
        </g>
    </g>
</svg>
