<svg xmlns="http://www.w3.org/2000/svg" width="147" height="497" viewBox="0 0 147 497">
    <g fill="none" fill-rule="evenodd">
        <g>
            <g>
                <g>
                    <path fill="#FFC4AF" fill-rule="nonzero" d="M81.987 109.935c40.448 0 73.238-32.719 73.238-73.08H8.75c0 40.361 32.79 73.08 73.237 73.08z" transform="translate(-1368 -261) translate(1368 261) matrix(0 1 1 0 0 194) rotate(-90 81.987 73.395)"/>
                    <path fill="#263DA8" d="M22.767 94.185c24.79 0 44.888-20.167 44.888-45.045H-22.12c0 24.878 20.096 45.045 44.887 45.045z" transform="translate(-1368 -261) translate(1368 261) matrix(0 1 1 0 0 194) rotate(-90 22.767 71.662)"/>
                </g>
                <g>
                    <path fill="#FF7D3E" d="M73.395 146.79c40.535 0 73.395-32.86 73.395-73.395H0c0 40.535 32.86 73.395 73.395 73.395z" transform="translate(-1368 -261) translate(1368 261) matrix(0 -1 1 0 0 497)"/>
                    <path fill="#00C39F" d="M73.395 73.395c40.535 0 73.395-32.86 73.395-73.395H0c0 40.535 32.86 73.395 73.395 73.395z" transform="translate(-1368 -261) translate(1368 261) matrix(0 -1 1 0 0 497) matrix(1 0 0 -1 0 73.395)"/>
                </g>
                <g fill-rule="nonzero">
                    <path fill="#FF2A68" d="M55.125 146.58c40.477 0 73.29-32.813 73.29-73.29C128.415 32.813 95.602 0 55.125 0v146.58z" transform="translate(-1368 -261) translate(1368 261) translate(18)"/>
                    <path fill="#FFCB00" d="M27.563 155.452c30.328 0 54.914-24.586 54.914-54.915 0-30.328-24.586-54.915-54.914-54.915v109.83z" transform="translate(-1368 -261) translate(1368 261) translate(18) rotate(90 55.02 100.537)"/>
                </g>
            </g>
        </g>
    </g>
</svg>
