<svg xmlns="http://www.w3.org/2000/svg" width="124" height="119" viewBox="0 0 124 119">
    <g fill="none" fill-rule="evenodd">
        <g fill="#000" fill-rule="nonzero">
            <g>
                <g>
                    <path d="M58.69 0h48.968v2.158c-5.522.48-9.722 1.919-12.603 4.316-2.88 2.399-9.961 10.912-21.243 25.539 0-11.75-.72-19.303-2.16-22.661-.163-.38-1.231-2.561-3.241-4.316-1.06-.926-2.16-1.439-3.96-2.158-1.2-.48-3.121-.72-5.761-.72V0zm-9.362 63.666L70.931 35.97c21.604 40.526 33.966 64.026 37.087 70.5 3.12 6.475 8.281 9.713 15.482 9.713v2.517c-21.124.48-34.445-.12-39.966-1.798-4.159-1.265-8.376-5.306-9.362-7.194-2.88-5.516-11.162-20.862-24.844-46.041zm-5.401 6.475l-30.245 37.768H0l.055-1.569c3.576-.834 12.588-3.633 13.627-10.278 1.305-8.341 1.08-57.393 1.08-60.092 0-4.127.915-18.896-1.8-26.258C11.282 5.156 6.961 2.518 0 1.799V0c17.763 0 27.845.24 30.245.72 8.942 1.786 12.198 11.02 12.602 12.23.72 2.158 1.08 21.222 1.08 57.191z" transform="translate(-1065 -6498) translate(1065 6498)"/>
                </g>
            </g>
        </g>
    </g>
</svg>
