<svg xmlns="http://www.w3.org/2000/svg" width="261" height="71" viewBox="0 0 261 71">
    <g fill="none" fill-rule="evenodd">
        <g fill-rule="nonzero">
            <g>
                <g>
                    <path fill="#2E1A47" d="M61.5 17.978c0-.219.007-.422.022-.603.014-.181.065-.34.16-.468.094-.128.24-.234.444-.301.203-.068.48-.106.844-.106h4.495c.24 0 .437.045.597.128.153.083.284.189.378.324.095.129.16.272.19.423.029.15.05.286.05.422v16.805l6.773-7.796c.328-.377.713-.565 1.164-.565h5.777c.69 0 1.033.279 1.033.837 0 .143-.022.256-.066.354-.043.09-.13.219-.269.392l-7.733 8.46 9.726 12.944h-.036c.16.166.276.34.35.52.065.174.101.332.101.475 0 .302-.08.506-.233.611-.16.113-.393.166-.705.166h-6.359c-.21 0-.414-.083-.604-.256-.189-.166-.392-.423-.618-.762l-6.155-9.024-2.087 2.239v6.295c0 .106-.015.241-.051.407-.03.166-.095.332-.19.498-.094.166-.225.301-.385.422-.16.12-.378.173-.64.173H62.75c-.225 0-.422-.06-.582-.188-.16-.12-.29-.264-.385-.422-.095-.159-.16-.302-.204-.438-.044-.135-.065-.218-.065-.24L61.5 17.977zM89.009 27.68c.17-.14.354-.227.547-.264.193-.036.378-.058.547-.058h3.006c.239 0 .447.044.616.124.17.08.316.19.44.329.123.139.216.292.293.46.069.176.138.35.208.54l.416 1.63c.2-.38.524-.782.963-1.183.447-.41.994-.782 1.657-1.111.655-.336 1.418-.606 2.282-.826.863-.219 1.826-.321 2.89-.321 1.51 0 2.867.27 4.054.818 1.187.54 2.196 1.286 3.029 2.229.832.942 1.464 2.038 1.896 3.295.431 1.256.647 2.6.647 4.025v12.186c0 .475-.108.826-.331 1.067-.216.241-.57.365-1.049.365h-4.6c-.571 0-.964-.087-1.18-.27-.216-.183-.316-.533-.316-1.052V37.966c0-1.19-.462-2.367-1.395-3.178-.008-.007-.015-.014-.023-.014-.424-.366-.91-.658-1.441-.863-.54-.211-1.087-.314-1.642-.314-.478 0-.963.103-1.464.3s-.956.475-1.372.825c-.416.351-.77.767-1.056 1.25-.285.475-.447.993-.486 1.556v12.091c0 .212-.046.424-.13.636-.085.212-.216.372-.386.482-.17.102-.339.168-.485.205-.155.036-.332.058-.532.058H90.11c-.57 0-.987-.132-1.233-.387-.247-.256-.378-.607-.378-1.045v-20.8c0-.234.054-.453.17-.65.115-.197.27-.35.47-.46l-.131.021zM117 38.235c0-1.195.15-2.337.458-3.441.3-1.097.728-2.119 1.284-3.058.548-.94 1.209-1.796 1.982-2.562.774-.774 1.63-1.428 2.576-1.968.946-.541 1.967-.962 3.056-1.263 1.096-.3 2.238-.443 3.424-.443 1.757 0 3.417.33 4.963.984 1.547.654 2.891 1.555 4.04 2.697 1.149 1.15 2.05 2.495 2.718 4.043.669 1.547.999 3.223.999 5.018 0 1.195-.15 2.337-.458 3.427-.308 1.096-.728 2.11-1.284 3.057-.548.947-1.209 1.804-1.982 2.577-.774.774-1.63 1.436-2.576 1.984-.946.548-1.96.977-3.041 1.27-1.081.3-2.208.443-3.386.443-1.194 0-2.336-.15-3.425-.443-1.096-.3-2.11-.722-3.056-1.27-.946-.548-1.802-1.21-2.575-1.984-.774-.773-1.434-1.63-1.982-2.577-.549-.946-.977-1.968-1.284-3.057-.293-1.097-.451-2.24-.451-3.434zm7.088 0c0 .856.135 1.653.398 2.397.263.744.639 1.39 1.127 1.93.488.542 1.073.977 1.764 1.293.691.315 1.472.473 2.343.473.841 0 1.6-.158 2.283-.473.683-.316 1.254-.751 1.727-1.292.473-.541.833-1.187 1.088-1.931.256-.744.376-1.548.376-2.397 0-.826-.128-1.615-.376-2.367-.247-.751-.615-1.412-1.088-1.983-.473-.571-1.052-1.022-1.727-1.353-.684-.33-1.442-.495-2.283-.495-.871 0-1.644.165-2.343.495-.69.331-1.284.782-1.764 1.353-.488.57-.864 1.232-1.127 1.983-.263.752-.398 1.54-.398 2.367zM142.738 28.877c-.261-.519-.306-.957-.142-1.322.165-.365.546-.548 1.151-.548h4.948c.337 0 .628.088.882.263.254.176.426.431.531.753.217.664.463 1.416.725 2.234.262.826.538 1.666.83 2.52.291.855.575 1.71.86 2.55l.784 2.33c.24.708.448 1.328.635 1.862.187.525.322.905.419 1.132l4.096-12.636c.164-.401.358-.672.568-.81.209-.14.508-.205.897-.205h4.581c.374 0 .658.044.852.131.195.088.322.205.389.358.067.154.075.322.037.519-.037.197-.104.402-.194.613l-2.123 5.084c.09.212.262.577.523 1.088.255.511.554 1.088.882 1.738.33.65.666 1.33 1.002 2.038.344.709.628 1.373.86 1.994l4.738-12.54c.164-.402.336-.672.516-.811.172-.139.433-.205.785-.205h4.267c.62 0 1.047.117 1.278.344.232.226.247.657.038 1.285l-9.066 21.553c-.12.227-.292.417-.531.577-.24.161-.583.234-1.031.234h-2.033c-.501 0-.867-.08-1.1-.234-.23-.16-.418-.365-.56-.613l-3.595-8.575-3.535 8.611c-.142.227-.306.417-.5.577-.195.161-.487.234-.868.234h-2.302c-.516 0-.882-.073-1.091-.22-.21-.145-.374-.342-.47-.59l-8.933-21.313zM189.874 49.124c-.12.238-.21.447-.291.628-.075.18-.165.332-.262.447-.097.116-.217.21-.36.274-.141.065-.336.094-.583.094h-3.83c-1.032 0-1.548-.476-1.548-1.436V19.414c0-.21.045-.404.127-.577.082-.173.195-.325.33-.447.134-.123.291-.224.463-.289.172-.065.344-.101.516-.101h4.391c.494 0 .875.137 1.16.411.284.274.426.606.426 1.01v9.603c.359-.375.748-.714 1.16-1.024.41-.31.86-.578 1.346-.794.486-.216 1.017-.39 1.593-.512.583-.123 1.227-.188 1.937-.188 1.75 0 3.366.318 4.848.945 1.473.628 2.745 1.494 3.807 2.59 1.062 1.104 1.892 2.396 2.498 3.882.599 1.486.898 3.095.898 4.82 0 1.716-.3 3.318-.898 4.811-.598 1.494-1.428 2.793-2.498 3.89-1.062 1.103-2.334 1.969-3.807 2.604-1.474.635-3.09.952-4.848.952-.658 0-1.286-.08-1.885-.245-.598-.159-1.167-.375-1.69-.635-.531-.26-1.017-.556-1.459-.888-.441-.331-.838-.663-1.19-.995l-.35.887zm11.662-10.389c0-.794-.135-1.551-.397-2.273-.261-.721-.643-1.356-1.129-1.904-.494-.549-1.077-.981-1.758-1.299-.68-.317-1.451-.476-2.304-.476-.853 0-1.645.159-2.386.476-.74.318-1.384.75-1.922 1.299-.539.548-.973 1.183-1.287 1.904-.314.722-.471 1.48-.471 2.273v.26c.037.786.224 1.515.553 2.2.33.686.763 1.277 1.31 1.782.538.505 1.174.902 1.892 1.183.718.29 1.496.426 2.319.426.852 0 1.615-.151 2.304-.454.68-.303 1.271-.722 1.757-1.241.487-.52.868-1.14 1.13-1.854.254-.715.389-1.48.389-2.302zM211.5 28.47c0-.403.12-.754.355-1.039.234-.292.597-.431 1.095-.431h4.471c.16 0 .325.037.506.102.182.066.355.168.507.3.15.132.287.285.4.46.113.176.166.38.166.607v21.076c0 .483-.136.84-.408 1.09-.272.248-.665.365-1.17.365h-4.472c-.967 0-1.442-.482-1.442-1.455V28.47h-.008zM244.76 47.65c-1.131 1.054-2.396 1.875-3.81 2.462-1.415.587-2.904.888-4.49.888-1.757 0-3.417-.324-4.987-.97-1.564-.648-2.94-1.551-4.117-2.695-1.184-1.152-2.114-2.5-2.814-4.057-.692-1.558-1.042-3.252-1.042-5.08 0-1.145.141-2.251.417-3.32.275-1.069.67-2.07 1.176-3.01.506-.934 1.124-1.792 1.846-2.582.722-.783 1.534-1.46 2.434-2.017.901-.557 1.876-.994 2.926-1.302 1.05-.309 2.159-.467 3.328-.467 1.064 0 2.099.143 3.096.429.998.286 1.943.685 2.822 1.204.878.52 1.682 1.144 2.419 1.867.73.73 1.362 1.52 1.883 2.386.529.865.93 1.784 1.221 2.762.29.978.432 1.987.432 3.026 0 .677-.007 1.227-.03 1.656-.022.429-.119.767-.298 1.023-.178.256-.476.43-.893.527-.417.098-1.027.143-1.839.143h-13.86c.126.828.387 1.528.781 2.085.395.557.841 1 1.355 1.332.514.331 1.057.565 1.638.708.58.143 1.124.21 1.637.21.462 0 .938-.045 1.422-.143.491-.098.96-.225 1.415-.391.454-.166.87-.354 1.25-.565.38-.21.685-.436.916-.67.208-.165.38-.293.528-.376.15-.083.306-.128.47-.128.163 0 .334.06.513.173.171.12.372.286.588.505l2.04 2.333c.141.166.23.324.268.459.037.136.06.279.06.422 0 .255-.068.481-.21.67-.133.195-.297.36-.49.504zm-9.26-16.212c-.499 0-.983.098-1.452.302-.469.203-.908.474-1.317.805-.41.339-.782.722-1.11 1.151-.327.43-.595.866-.796 1.303h9.834c-.268-.505-.559-.971-.879-1.4-.312-.43-.677-.806-1.079-1.13-.402-.323-.864-.579-1.385-.76-.513-.18-1.124-.27-1.816-.27z" transform="translate(-728 -5347) translate(728 5347)"/>
                    <path fill="#B1B2DD" d="M31.175 0C41.299 0 49.5 8.208 49.5 18.325 49.5 21.46 46.96 24 43.825 24h-12.65c-3.135 0-5.675-2.54-5.675-5.675V5.675C25.5 2.548 28.04 0 31.175 0z" transform="translate(-728 -5347) translate(728 5347)"/>
                    <path fill="#2E1A47" d="M213.273 16.5c3.164 0 5.727 2.565 5.727 5.727 0 .98-.794 1.773-1.773 1.773h-3.954c-.98 0-1.773-.794-1.773-1.773v-3.954c0-.977.794-1.773 1.773-1.773z" transform="translate(-728 -5347) translate(728 5347)"/>
                    <path fill="#FF6A4D" d="M18.325 24C21.46 24 24 26.54 24 29.675v12.65C24 45.46 21.46 48 18.325 48H5.675C2.54 48 0 45.46 0 42.325 0 32.208 8.208 24 18.325 24z" transform="translate(-728 -5347) translate(728 5347)"/>
                    <path fill="#EFAC00" d="M31.175 46.5h12.65c3.135 0 5.675 2.54 5.675 5.675 0 10.124-8.208 18.325-18.325 18.325-3.135 0-5.675-2.54-5.675-5.675v-12.65c0-3.135 2.54-5.675 5.675-5.675z" transform="translate(-728 -5347) translate(728 5347)"/>
                </g>
                <path fill="#2E1A47" d="M251.809 23v-4.352h1.367V17.48h-3.977v1.168h1.367V23h1.243zm3.336 0v-3.383L256.559 23h.847l1.426-3.398V23h1.238v-5.52h-1.582l-1.496 3.582-1.488-3.582h-1.602V23h1.243z" transform="translate(-728 -5347) translate(728 5347)"/>
            </g>
        </g>
    </g>
</svg>
