<svg xmlns="http://www.w3.org/2000/svg" width="247" height="71" viewBox="0 0 247 71">
    <g fill="none" fill-rule="evenodd">
        <g fill-rule="nonzero">
            <g>
                <path fill="#2E1A47" d="M61 18.5c0-.223.007-.43.022-.613.014-.183.065-.344.16-.474.094-.13.24-.237.444-.306.203-.069.48-.107.844-.107h4.495c.24 0 .437.046.597.13.153.084.284.191.378.329.095.13.16.275.19.428.029.153.05.29.05.429v17.048l6.773-7.908c.328-.383.713-.574 1.164-.574h5.777c.69 0 1.033.283 1.033.849 0 .145-.022.26-.066.36-.043.091-.13.221-.269.397l-7.733 8.582 9.726 13.133h-.036c.16.168.276.344.35.527.065.176.101.337.101.482 0 .306-.08.513-.233.62-.16.114-.393.168-.705.168h-6.359c-.21 0-.414-.084-.604-.26-.189-.168-.392-.428-.618-.773l-6.155-9.155-2.087 2.272v6.386c0 .107-.015.245-.051.413-.03.169-.095.337-.19.505-.094.168-.225.306-.385.428-.16.123-.378.176-.64.176H62.25c-.225 0-.422-.06-.582-.19-.16-.123-.29-.269-.385-.43-.095-.16-.16-.305-.204-.443-.044-.137-.065-.222-.065-.245L61 18.5zM88.509 28.68c.17-.14.354-.227.547-.264.193-.036.378-.058.547-.058h3.006c.239 0 .447.044.616.124.17.08.316.19.44.329.123.139.216.292.293.46.069.176.138.35.208.54l.416 1.63c.2-.38.524-.782.963-1.183.447-.41.994-.782 1.657-1.111.655-.336 1.418-.606 2.282-.826.863-.219 1.826-.321 2.89-.321 1.51 0 2.867.27 4.054.818 1.187.54 2.196 1.286 3.029 2.229.832.942 1.464 2.038 1.896 3.295.431 1.256.647 2.6.647 4.025v12.186c0 .475-.108.826-.331 1.067-.216.241-.57.365-1.049.365h-4.6c-.571 0-.964-.087-1.18-.27-.216-.183-.316-.533-.316-1.052V38.966c0-1.19-.462-2.367-1.395-3.178-.008-.007-.015-.014-.023-.014-.424-.366-.91-.658-1.441-.863-.54-.211-1.087-.314-1.642-.314-.478 0-.963.103-1.464.3s-.956.475-1.372.825c-.416.351-.77.767-1.056 1.25-.285.475-.447.993-.486 1.556v12.091c0 .212-.046.424-.13.636-.085.212-.216.372-.386.482-.17.102-.339.168-.485.205-.155.036-.332.058-.532.058H89.61c-.57 0-.987-.132-1.233-.387-.247-.256-.378-.607-.378-1.045v-20.8c0-.234.054-.453.17-.65.115-.197.27-.35.47-.46l-.131.021zM115 38.985c0-1.218.153-2.383.467-3.509.306-1.118.743-2.16 1.31-3.118.558-.957 1.232-1.83 2.02-2.612.789-.789 1.662-1.455 2.626-2.007.965-.552 2.006-.98 3.116-1.287 1.118-.306 2.282-.452 3.492-.452 1.791 0 3.483.337 5.06 1.004 1.577.666 2.948 1.585 4.12 2.75 1.17 1.172 2.09 2.543 2.77 4.121.682 1.578 1.019 3.286 1.019 5.117 0 1.218-.153 2.383-.467 3.494-.314 1.118-.743 2.152-1.31 3.117-.558.966-1.232 1.839-2.02 2.628-.789.789-1.662 1.463-2.626 2.022-.965.56-1.999.996-3.101 1.295-1.103.306-2.251.452-3.453.452-1.217 0-2.381-.153-3.491-.452-1.118-.306-2.152-.735-3.116-1.295-.965-.559-1.838-1.233-2.626-2.022-.789-.789-1.463-1.662-2.021-2.628-.56-.965-.996-2.007-1.31-3.117-.298-1.119-.459-2.283-.459-3.501zm7.227 0c0 .873.138 1.685.406 2.443.268.759.65 1.418 1.149 1.97.497.55 1.094.995 1.799 1.317.704.322 1.5.482 2.388.482.858 0 1.631-.16 2.328-.482.697-.322 1.278-.766 1.76-1.318.483-.551.85-1.21 1.11-1.969.261-.758.384-1.578.384-2.443 0-.843-.13-1.647-.383-2.413-.253-.766-.628-1.44-1.11-2.023-.483-.582-1.072-1.042-1.761-1.379-.697-.337-1.47-.505-2.328-.505-.888 0-1.676.168-2.388.505-.705.337-1.31.797-1.8 1.38-.497.581-.88 1.256-1.148 2.022-.268.766-.406 1.57-.406 2.413zM142.238 29.877c-.261-.519-.306-.957-.142-1.322.165-.365.546-.548 1.151-.548h4.948c.337 0 .628.088.882.263.254.176.426.431.531.753.217.664.463 1.416.725 2.234.262.826.538 1.666.83 2.52.291.855.575 1.71.86 2.55l.784 2.33c.24.708.448 1.328.635 1.862.187.525.322.905.419 1.132l4.096-12.636c.164-.401.358-.672.568-.81.209-.14.508-.205.897-.205h4.581c.374 0 .658.044.852.131.195.088.322.205.389.358.067.154.075.322.037.519-.037.197-.104.402-.194.613l-2.123 5.084c.09.212.262.577.523 1.088.255.511.554 1.088.882 1.738.33.65.666 1.33 1.002 2.038.344.709.628 1.373.86 1.994l4.738-12.54c.164-.402.336-.672.516-.811.172-.139.433-.205.785-.205h4.267c.62 0 1.047.117 1.278.344.232.226.247.657.038 1.285l-9.066 21.553c-.12.227-.292.417-.531.577-.24.161-.583.234-1.031.234h-2.033c-.501 0-.867-.08-1.1-.234-.23-.16-.418-.365-.56-.613l-3.595-8.575-3.535 8.611c-.142.227-.306.417-.5.577-.195.161-.487.234-.868.234h-2.302c-.516 0-.882-.073-1.091-.22-.21-.145-.374-.342-.47-.59l-8.933-21.313zM189.01 50.124c-.123.238-.214.447-.298.628-.077.18-.168.332-.267.447-.1.116-.221.21-.366.274-.145.065-.344.094-.595.094h-3.905c-1.053 0-1.579-.476-1.579-1.436V20.414c0-.21.046-.404.13-.577.084-.173.198-.325.335-.447.138-.123.298-.224.473-.289.176-.065.35-.101.526-.101h4.477c.504 0 .893.137 1.182.411.29.274.435.606.435 1.01v9.603c.366-.375.763-.714 1.182-1.024.42-.31.877-.578 1.373-.794.496-.216 1.037-.39 1.625-.512.595-.123 1.25-.188 1.975-.188 1.785 0 3.432.318 4.942.945 1.503.628 2.8 1.494 3.882 2.59 1.083 1.104 1.93 2.396 2.548 3.882.61 1.486.915 3.095.915 4.82 0 1.716-.305 3.318-.915 4.811-.61 1.494-1.457 2.793-2.548 3.89-1.083 1.103-2.38 1.969-3.882 2.604-1.502.635-3.15.952-4.942.952-.671 0-1.312-.08-1.922-.245-.61-.159-1.19-.375-1.724-.635-.541-.26-1.037-.556-1.487-.888-.45-.331-.854-.663-1.212-.995l-.359.887zm11.89-10.389c0-.794-.138-1.551-.405-2.273-.267-.721-.656-1.356-1.151-1.904-.504-.549-1.099-.981-1.793-1.299-.694-.317-1.48-.476-2.349-.476-.87 0-1.678.159-2.433.476-.755.318-1.41.75-1.96 1.299-.55.548-.991 1.183-1.312 1.904-.32.722-.48 1.48-.48 2.273v.26c.038.786.229 1.515.564 2.2.336.686.778 1.277 1.335 1.782.549.505 1.197.902 1.93 1.183.732.29 1.525.426 2.364.426.87 0 1.647-.151 2.349-.454.694-.303 1.296-.722 1.792-1.241.496-.52.885-1.14 1.152-1.854.26-.715.396-1.48.396-2.302zM211 29.47c0-.403.129-.754.379-1.039.25-.292.636-.431 1.168-.431h4.77c.168 0 .346.037.539.102.193.066.379.168.54.3.16.132.306.285.427.46.12.176.177.38.177.607v21.076c0 .483-.145.84-.435 1.09-.29.248-.709.365-1.249.365h-4.77c-1.03 0-1.538-.482-1.538-1.455V29.47H211zM244.26 48.585c-1.131 1.074-2.396 1.91-3.81 2.51-1.415.598-2.904.905-4.49.905-1.757 0-3.417-.33-4.987-.99-1.564-.66-2.94-1.58-4.117-2.747-1.184-1.174-2.114-2.548-2.814-4.137-.692-1.588-1.042-3.315-1.042-5.18 0-1.166.141-2.294.417-3.384.275-1.09.67-2.11 1.176-3.07.506-.951 1.124-1.826 1.846-2.632.722-.798 1.534-1.489 2.434-2.057.901-.567 1.876-1.013 2.926-1.327 1.05-.315 2.159-.476 3.328-.476 1.064 0 2.099.146 3.096.437.998.292 1.943.699 2.822 1.228.878.53 1.682 1.167 2.419 1.903.73.745 1.362 1.55 1.883 2.433.529.883.93 1.819 1.221 2.817.29.997.432 2.026.432 3.085 0 .69-.007 1.25-.03 1.688-.022.437-.119.783-.298 1.044-.178.26-.476.437-.893.537-.417.1-1.027.146-1.839.146h-13.86c.126.844.387 1.557.781 2.125.395.568.841 1.021 1.355 1.359.514.337 1.057.575 1.638.721.58.146 1.124.215 1.637.215.462 0 .938-.046 1.422-.146.491-.1.96-.23 1.415-.399.454-.169.87-.36 1.25-.576.38-.214.685-.445.916-.683.208-.168.38-.299.528-.383.15-.085.306-.13.47-.13.163 0 .334.06.513.176.171.123.372.291.588.514l2.04 2.379c.141.169.23.33.268.468.037.138.06.284.06.43 0 .26-.068.491-.21.683-.133.2-.297.368-.49.514zM235 32.055c-.499 0-.983.1-1.452.307s-.908.483-1.317.821c-.41.345-.782.737-1.11 1.174-.327.438-.595.883-.796 1.328h9.834c-.268-.514-.559-.99-.879-1.428-.312-.437-.677-.82-1.079-1.15-.402-.33-.864-.592-1.385-.776-.513-.184-1.124-.276-1.816-.276z" transform="translate(-984 -6282) translate(984 6282)"/>
                <path fill="#3748A2" d="M30.675 0C40.799 0 49 8.208 49 18.325 49 21.46 46.46 24 43.325 24h-12.65C27.54 24 25 21.46 25 18.325V5.675C25 2.548 27.54 0 30.675 0z" transform="translate(-984 -6282) translate(984 6282)"/>
                <path fill="#2E1A47" d="M212.892 17c3.374 0 6.108 2.736 6.108 6.108 0 1.045-.847 1.892-1.892 1.892h-4.216c-1.045 0-1.892-.847-1.892-1.892v-4.216c0-1.043.847-1.892 1.892-1.892z" transform="translate(-984 -6282) translate(984 6282)"/>
                <path fill="#F1CFE4" d="M18.325 24C21.46 24 24 26.54 24 29.675v12.65C24 45.46 21.46 48 18.325 48H5.675C2.54 48 0 45.46 0 42.325 0 32.208 8.208 24 18.325 24z" transform="translate(-984 -6282) translate(984 6282)"/>
                <path fill="#A7E3D7" d="M30.675 47h12.65C46.46 47 49 49.54 49 52.675 49 62.799 40.792 71 30.675 71 27.54 71 25 68.46 25 65.325v-12.65C25 49.54 27.54 47 30.675 47z" transform="translate(-984 -6282) translate(984 6282)"/>
            </g>
        </g>
    </g>
</svg>
