<svg xmlns="http://www.w3.org/2000/svg" width="127" height="65" viewBox="0 0 127 65">
    <g fill="none" fill-rule="evenodd">
        <g fill-rule="nonzero">
            <g>
                <path fill="#000" d="M103.57 0c12.902 0 23.362 10.605 23.362 23.687s-10.46 23.687-23.362 23.687c-12.903 0-23.363-10.605-23.363-23.687S90.667 0 103.57 0zm0 10.059c-7.527 0-13.628 6.174-13.628 13.79 0 7.617 6.101 13.79 13.628 13.79 7.526 0 13.628-6.173 13.628-13.79 0-7.616-6.102-13.79-13.628-13.79z" transform="translate(-437 -6282) translate(437 6282)"/>
                <path fill="#FFD36B" d="M98.702 36.017H108.43599999999999V82.742H98.702z" transform="translate(-437 -6282) translate(437 6282) rotate(90 103.57 59.38)"/>
                <path fill="#000" d="M10.735 64.247L10.735 18.28 32.938 46.448 35.232 46.448 57.527 18.189 57.527 64.247 68.17 64.247 68.17 0.022 58.536 0.022 34.131 31.125 9.725 0.022 0 0.022 0 64.247z" transform="translate(-437 -6282) translate(437 6282)"/>
            </g>
        </g>
    </g>
</svg>
