<svg xmlns="http://www.w3.org/2000/svg" width="824" height="180" viewBox="0 0 824 180">
    <g fill="none" fill-rule="evenodd">
        <g>
            <g>
                <g fill-rule="nonzero" transform="translate(-691 -671) translate(691 671) translate(417 1)">
                    <circle cx="89.472" cy="89.472" r="89.472" fill="#FFC4AF"/>
                    <circle cx="89.664" cy="89.664" r="56.256" fill="#263DA8"/>
                </g>
                <g>
                    <path fill="#FF2A68" fill-rule="nonzero" d="M99.946 134.016c49.308 0 89.28-39.886 89.28-89.088H10.666c0 49.202 39.972 89.088 89.28 89.088z" transform="translate(-691 -671) translate(691 671) translate(226) rotate(-90 99.946 89.472)"/>
                    <path fill="#FFCB00" d="M27.754 114.816c30.221 0 54.72-24.585 54.72-54.912h-109.44c0 30.327 24.5 54.912 54.72 54.912z" transform="translate(-691 -671) translate(691 671) translate(226) rotate(-90 27.754 87.36)"/>
                </g>
                <g>
                    <path fill="#263DA8" d="M89.472 178.944c49.414 0 89.472-40.058 89.472-89.472H0c0 49.414 40.058 89.472 89.472 89.472z" transform="translate(-691 -671) translate(691 671) translate(0 1)"/>
                    <path fill="#00C39F" d="M89.472 89.472c49.414 0 89.472-40.058 89.472-89.472H0c0 49.414 40.058 89.472 89.472 89.472z" transform="translate(-691 -671) translate(691 671) translate(0 1) matrix(1 0 0 -1 0 89.472)"/>
                </g>
                <g fill-rule="nonzero">
                    <path fill="#FF7D3E" d="M134.4 134.4c49.414 0 89.472-40.058 89.472-89.472H44.928c0 49.414 40.058 89.472 89.472 89.472z" transform="translate(-691 -671) translate(691 671) translate(644) rotate(-90 134.4 89.664)"/>
                    <path fill="#FFCB00" d="M58.297 147.84c24.214 0 46.18-9.634 62.279-25.281L55.979 58.368h-87.083c0 49.414 40.026 89.472 89.401 89.472z" transform="translate(-691 -671) translate(691 671) translate(644) matrix(0 -1 -1 0 147.84 147.84)"/>
                </g>
            </g>
        </g>
    </g>
</svg>
