<svg xmlns="http://www.w3.org/2000/svg" width="278" height="57" viewBox="0 0 278 57">
    <g fill="none" fill-rule="evenodd">
        <g>
            <g transform="translate(-109 -5356) translate(109 5356)">
                <g transform="translate(54)">
                    <path fill="#000" d="M32.883 39.84h8.074c-.063-5.43-.063-9.145 0-11.144.19-6.029.19-9.133 4.207-9.133 4.016 0 4.135 2.975 4.334 9.133.064 1.977.064 5.692 0 11.144h8.005V28.696c0-5.942.524-9.133 4.319-9.133s4.15 3.127 4.15 9.133V39.84h8.069V25.466c0-2.002.444-9.384-6.51-12.845-4.635-2.308-9.325-1.633-14.069 2.025-4.636-3.66-9.286-4.335-13.952-2.025-6.998 3.465-6.627 10.65-6.627 12.845V39.84zM78.843 39.84h8.074c-.063-5.43-.063-9.145 0-11.144.19-6.029.19-9.133 4.207-9.133 4.016 0 4.135 2.975 4.334 9.133.064 1.977.064 5.692 0 11.144h8.005V28.696c0-5.942.524-9.133 4.32-9.133 3.794 0 4.15 3.127 4.15 9.133V39.84H120V25.466c0-.386.444-9.384-6.51-12.845-4.635-2.308-9.325-1.633-14.069 2.025-4.636-3.66-9.286-4.335-13.952-2.025-6.998 3.465-6.627 10.65-6.627 12.845V39.84z"/>
                    <circle cx="219" cy="35.64" r="4.2" fill="#000"/>
                    <path fill="#000" d="M157.32 0h8.4v39.84c-4.64 0-8.4-3.76-8.4-8.4V0z"/>
                    <path fill="#000" d="M166.56 2.64h8.4v13.68c-4.64 0-8.4-3.76-8.4-8.4V2.64z" transform="rotate(-90 170.76 9.48)"/>
                    <path fill="#0043EA" fill-rule="nonzero" d="M169.2 30.24h8.4v9.6c-4.64 0-8.4-3.76-8.4-8.4v-1.2z" transform="matrix(-1 0 0 1 346.8 0)"/>
                </g>
                <path fill="#000" d="M0 25.44h8.16v22.8c0 4.507-3.653 8.16-8.16 8.16"/>
                <circle cx="68.4" cy="25.44" r="10.2" stroke="#000" stroke-width="8.4"/>
                <circle cx="14.4" cy="25.44" r="10.2" stroke="#000" stroke-width="8.4"/>
                <circle cx="192.8" cy="25.44" r="10.2" stroke="#000" stroke-width="8.4"/>
                <circle cx="250.4" cy="25.44" r="10.2" stroke="#000" stroke-width="8.4"/>
                <g fill="#000">
                    <path d="M.8 3.262h8.452v28.6C4.584 31.862.8 28.078.8 23.41V3.262z" transform="translate(32.4 8.2) matrix(1 0 0 -1 0 35.124)"/>
                    <path d="M7.345 7.797L21.3 16.06l-5.527-2.466c-2.264-1.01-3.933-1.2-5.037-.443-1.831 1.256-3.044 3.07-3.639 5.444l-8.096-.654c-.105-1.457.32-3.258 1.272-5.403C1.703 9.32 3.166 8.64 4.957 7.32c1.194-.88 1.99-.721 2.388.476z" transform="translate(32.4 8.2) scale(-1 1) rotate(66 0 -2.94)"/>
                </g>
            </g>
        </g>
    </g>
</svg>
