<svg xmlns="http://www.w3.org/2000/svg" xmlns:xlink="http://www.w3.org/1999/xlink" width="180" height="64" viewBox="0 0 180 64">
    <defs>
        <path id="e5vtk7dhpa" d="M0.2 0.018L46.842 0.018 46.842 40.446 0.2 40.446z"/>
        <path id="9nwcn4bnxc" d="M0.015 0.052L179.964 0.052 179.964 59.509 0.015 59.509z"/>
    </defs>
    <g fill="none" fill-rule="evenodd">
        <g>
            <g>
                <path fill="#19AC9D" d="M18.102 46.574c-.04.694-.096 1.416-.17 2.167-.074.75-.176 1.491-.305 2.22-.13.73-.294 1.428-.493 2.092-.199.664-.443 1.25-.732 1.754-.29.505-.634.907-1.033 1.209-.4.3-.861.458-1.385.472-.366.01-.599-.121-.7-.392-.099-.271-.13-.59-.093-.953.037-.364.108-.72.214-1.07.105-.35.173-.602.205-.76.28-1.158.454-2.347.52-3.567.065-1.22.033-2.434-.097-3.643-.129-1.209-.35-2.393-.66-3.552-.311-1.16-.709-2.264-1.193-3.313-.22-.386-.424-.762-.612-1.132-.189-.37-.374-.725-.555-1.066-.21-.442-.298-.83-.266-1.167.032-.336.158-.618.377-.848.218-.23.512-.402.88-.518.369-.115.784-.174 1.248-.175.882.089 1.628.366 2.24.83.613.464 1.11 1.024 1.49 1.678.38.655.662 1.358.844 2.107.182.75.29 1.453.323 2.112.588-.306 1.06-.615 1.417-.926.972-.874 1.67-1.767 2.093-2.678.423-.91.624-1.793.604-2.647-.02-.855-.232-1.659-.634-2.414-.402-.755-.941-1.417-1.618-1.986-.677-.568-1.463-1.017-2.357-1.346-.895-.328-1.84-.496-2.835-.503-.995-.008-2.01.17-3.049.533-1.038.362-2.044.953-3.019 1.772-.725.622-1.412 1.28-2.061 1.973-.65.693-1.247 1.382-1.793 2.067-.546.685-1.035 1.34-1.467 1.966-.431.626-.792 1.18-1.082 1.663-.29.482-.51.866-.66 1.149-.15.283-.212.424-.188.423-.195.006-.333-.035-.415-.123-.082-.087-.135-.189-.156-.305-.022-.117-.029-.237-.02-.36.008-.123.01-.224.008-.302-.003-.09.093-.349.287-.779.194-.43.464-.96.81-1.589.346-.629.764-1.315 1.253-2.06.49-.745 1.028-1.477 1.615-2.197.565-.663 1.176-1.321 1.832-1.976.657-.654 1.345-1.275 2.065-1.864.72-.589 1.468-1.136 2.246-1.643.777-.506 1.568-.943 2.374-1.311.794-.356 1.588-.64 2.38-.85.793-.211 1.598-.327 2.414-.349 1.476-.039 2.754.157 3.835.586 1.08.43 1.972 1.019 2.673 1.765.7.748 1.215 1.611 1.545 2.591.33.98.484 2.005.462 3.072-.021 1.068-.214 2.134-.576 3.2-.364 1.066-.888 2.057-1.572 2.974-.686.918-1.53 1.72-2.533 2.405-1.004.686-2.154 1.18-3.45 1.482 1.128 1.725 2.22 3.3 3.278 4.724 1.058 1.425 2.186 2.689 3.386 3.792 1.2 1.102 2.526 2.034 3.977 2.794 1.451.762 3.129 1.34 5.033 1.737.774.17 1.304.435 1.59.796.285.362.398.758.339 1.19-.06.432-.257.867-.59 1.306-.335.439-.74.816-1.219 1.13-.25.174-.525.301-.82.382-.297.08-.591.135-.883.166-.292.03-.573.043-.84.038-.27-.004-.501-.003-.696.002-.709-.015-1.433-.164-2.174-.446-.74-.282-1.47-.665-2.187-1.15-.717-.483-1.42-1.045-2.112-1.687-.69-.64-1.347-1.328-1.967-2.06-.621-.732-1.198-1.488-1.728-2.267-.53-.78-.994-1.547-1.39-2.302-.396-.755-.724-1.478-.983-2.17-.26-.691-.423-1.315-.49-1.873" transform="translate(-715 -6047) translate(715 6047)"/>
                <path fill="#19AC9D" d="M29.014 43.577c.428-.106.869-.24 1.322-.405.452-.165.861-.376 1.226-.635.365-.258.67-.57.916-.934.245-.364.38-.8.406-1.304.05-.717-.309-1.175-1.076-1.375-.202-.047-.425.053-.67.3-.246.246-.495.587-.746 1.021-.252.435-.497.944-.736 1.525-.24.582-.453 1.184-.642 1.807zm4.153-1.622c-.202.341-.46.644-.774.908-.315.264-.667.503-1.057.714-.39.211-.806.39-1.246.538-.44.146-.88.267-1.321.36-.151.635-.271 1.258-.359 1.869-.088.612-.126 1.163-.113 1.657.012.494.088.899.226 1.216.139.317.365.494.68.529.427.059.862-.02 1.302-.238.44-.217.875-.526 1.303-.925.427-.4.84-.861 1.236-1.384.397-.523.77-1.06 1.123-1.613.352-.552.676-1.095.972-1.63.296-.535.55-1.01.764-1.428.215-.417.387-.749.52-.996.132-.246.21-.358.236-.334.138-.012.254.029.349.123.094.094.116.259.066.494-.113.27-.274.62-.481 1.048-.208.429-.45.9-.727 1.41-.277.511-.582 1.046-.915 1.604-.334.559-.68 1.099-1.039 1.621-.358.523-.727 1.012-1.104 1.463-.377.453-.742.826-1.095 1.12-.83.67-1.632 1.099-2.406 1.286-.774.189-1.482.168-2.124-.061-.642-.23-1.189-.655-1.642-1.278-.453-.623-.774-1.404-.962-2.344-.151-.787-.186-1.604-.104-2.45.082-.846.254-1.672.519-2.477.264-.805.607-1.566 1.028-2.282.422-.717.89-1.34 1.407-1.869.515-.528 1.069-.934 1.66-1.216.592-.282 1.19-.393 1.794-.335.579.06 1.082.253 1.51.582.428.33.748.729.962 1.199.214.47.312.98.293 1.533-.019.552-.18 1.081-.481 1.586z" transform="translate(-715 -6047) translate(715 6047)"/>
                <g fill="#19AC9D">
                    <path d="M14.421 26.219c.05-.046.105-.088.167-.128.062-.04.124-.054.186-.043.062.012.123.057.186.136.061.08.117.211.166.393l-.436 1.073c-.18.443-.39.932-.63 1.466-.242.534-.509 1.09-.8 1.67-.29.58-.602 1.142-.936 1.687-.273.444-.573.87-.9 1.279-.33.409-.666.77-1.013 1.082-.347.313-.693.563-1.04.75-.346.187-.674.281-.983.281-.483 0-.851-.15-1.105-.452-.254-.3-.43-.698-.53-1.193-.098-.494-.138-1.056-.12-1.687.019-.63.053-1.275.103-1.934.049-.659.095-1.304.139-1.935.043-.63.049-1.193.018-1.687-.03-.494-.124-.892-.278-1.193-.155-.3-.406-.452-.752-.452-.173 0-.371.137-.594.41-.223.272-.446.61-.669 1.013-.222.404-.433.836-.63 1.296-.199.46-.36.883-.483 1.27-.075.692-.121 1.326-.14 1.9-.018.574-.034 1.088-.046 1.542-.012.455-.028.844-.046 1.168-.019.324-.065.588-.14.792-.099.273-.247.48-.445.622-.198.143-.409.22-.631.23-.223.012-.446-.045-.669-.17-.222-.125-.408-.324-.557-.596-.136-.262-.244-.546-.324-.853-.081-.307-.14-.616-.177-.929-.037-.312-.062-.622-.074-.928-.012-.307-.019-.597-.019-.87 0-1.306.028-2.601.084-3.885.056-1.284.114-2.58.176-3.887.013-.18.022-.38.028-.596.006-.216.037-.415.093-.596.056-.182.151-.333.288-.452.136-.12.346-.18.63-.18.57 0 .994.097 1.273.291.278.193.473.443.584.75.112.307.164.653.158 1.04-.006.386-.01.772-.01 1.158 0 .125-.002.285-.009.477-.006.194-.009.393-.009.597 0 .205-.003.403-.009.596-.007.194-.01.352-.01.478.075-.148.17-.333.288-.554.118-.222.251-.46.4-.716.148-.256.309-.52.482-.793s.353-.54.538-.8c.471-.614.978-1.058 1.523-1.33.544-.273 1.055-.38 1.531-.324.477.057.888.279 1.235.665.346.386.563.932.65 1.636.099.796.102 1.585.01 2.37l-.289 2.402c-.025.25-.062.574-.111.972-.05.398-.084.795-.102 1.192-.019.398-.016.759.009 1.083.025.324.099.537.223.64.123.101.306.059.548-.129.24-.187.566-.594.974-1.219.322-.499.647-1.056.975-1.67.327-.613.63-1.204.91-1.772.278-.568.519-1.076.723-1.525.205-.45.344-.76.418-.93M28.386 42.766c.54.128 1.02.027 1.44-.303.42-.33.784-.792 1.089-1.385.305-.594.568-1.268.788-2.023.22-.755.394-1.494.521-2.215.127-.722.223-1.38.286-1.976.064-.595.098-1.033.104-1.315-.106.05-.288.152-.545.306-.257.155-.56.373-.908.654-.347.282-.713.635-1.097 1.058-.384.423-.749.92-1.095 1.49-.115.191-.256.452-.42.784-.166.332-.327.695-.483 1.09-.157.394-.29.8-.398 1.217-.11.416-.169.804-.179 1.164-.01.36.053.67.188.933.134.262.371.436.709.521zm17.87-11.605c1.597.493 3.16 1.065 4.688 1.716 1.529.65 3.095 1.356 4.7 2.114.83.37 1.835.804 3.017 1.299 1.181.495 2.456.984 3.826 1.467 1.369.483 2.797.913 4.284 1.292 1.487.378 2.957.64 4.411.785 1.454.145 2.849.127 4.186-.053 1.337-.18 2.543-.592 3.619-1.235 1.075-.643 1.975-1.555 2.7-2.736.724-1.182 1.202-2.712 1.43-4.593.143-.628.223-1.235.24-1.822.017-.586.077-1.083.18-1.492.102-.409.302-.69.6-.846.297-.156.804-.117 1.523.116.759.279 1.352.729 1.78 1.351.426.623.722 1.347.886 2.17.165.825.206 1.703.125 2.634-.08.931-.25 1.853-.505 2.765-.256.913-.591 1.768-1.004 2.567-.414.8-.875 1.47-1.383 2.014-.728.814-1.55 1.501-2.467 2.062-.918.561-1.884 1.018-2.901 1.37-1.017.352-2.06.608-3.129.766-1.069.159-2.12.235-3.154.228-1.57.006-3.196-.181-4.877-.562-1.682-.382-3.367-.878-5.055-1.485-1.688-.609-3.358-1.287-5.01-2.036-1.652-.75-3.233-1.482-4.743-2.196-1.034-.506-2.055-.997-3.061-1.473-1.007-.476-2.007-.952-3-1.429-.749-.372-1.549-.771-2.4-1.196-.85-.425-1.714-.83-2.59-1.215-.877-.385-1.753-.735-2.627-1.05-.875-.315-1.703-.542-2.485-.68-.148 1.457-.336 2.86-.566 4.21-.23 1.348-.513 2.604-.849 3.769-.336 1.164-.736 2.212-1.2 3.146-.463.932-1.007 1.719-1.633 2.358-.744.768-1.464 1.266-2.162 1.494-.698.228-1.379.263-2.04.107-.744-.186-1.353-.487-1.828-.905-.475-.419-.838-.914-1.09-1.486-.25-.572-.399-1.193-.444-1.864-.046-.671-.019-1.351.083-2.041.1-.69.27-1.358.506-2.004.237-.646.522-1.239.856-1.778.692-1.142 1.47-2.133 2.331-2.974.862-.84 1.767-1.6 2.714-2.28l.142-8.462c-.298.835-.694 1.551-1.187 2.149-.493.598-1.067 1.072-1.721 1.424-.654.351-1.38.58-2.175.684-.796.105-1.645.083-2.549-.068-1.051-.177-1.948-.574-2.69-1.19-.742-.614-1.358-1.384-1.848-2.31-.489-.926-.868-1.987-1.136-3.184-.27-1.196-.466-2.46-.591-3.794-.126-1.332-.191-2.714-.198-4.143-.007-1.43.01-2.84.05-4.232.014-.483.035-1.02.066-1.606.03-.587.087-1.182.17-1.786.084-.603.202-1.188.354-1.754.151-.566.355-1.07.61-1.515.257-.442.569-.802.937-1.077.367-.273.813-.417 1.336-.43.481-.073.954-.089 1.418-.045.464.043.884.162 1.258.356.375.195.685.464.93.81.244.346.387.776.428 1.29.024.375-.011 1.005-.107 1.89s-.204 1.922-.324 3.113c-.121 1.19-.24 2.474-.354 3.851-.116 1.378-.178 2.743-.186 4.094-.01 1.352.051 2.636.18 3.851.128 1.216.372 2.249.732 3.1.26.65.603 1.161 1.03 1.533.426.373.882.593 1.367.66.485.066.972-.028 1.462-.282.489-.254.933-.69 1.332-1.309.295-.46.569-.982.82-1.566.252-.584.463-1.207.632-1.867l.166-11.909c.046-.72.21-1.325.492-1.816.28-.49.63-.87 1.045-1.138.415-.268.87-.431 1.365-.49.494-.059.972-.011 1.433.142.46.153.88.408 1.26.766.379.358.663.816.854 1.374-.14.754-.22 1.622-.238 2.607-.02.985-.068 1.994-.146 3.027-.097 1.315-.175 2.703-.234 4.165-.06 1.462-.12 2.956-.185 4.48-.064 1.526-.134 3.066-.211 4.623-.077 1.556-.181 3.086-.313 4.588.724-.048 1.455-.054 2.194-.017.74.038 1.459.103 2.16.195.7.093 1.364.213 1.993.362.628.149 1.193.312 1.694.487z" transform="translate(-715 -6047) translate(715 6047) translate(35.29 15.358)"/>
                </g>
                <path fill="#19AC9D" d="M85.327 29.67c-.055.206-.124.494-.204.866-.08.371-.126.74-.136 1.108-.01.368.033.694.132.98.098.286.3.444.603.477.056-.413.11-.862.163-1.348.054-.485.098-1.102.135-1.852.014-.207.005-.392-.026-.553-.03-.162-.08-.27-.145-.321-.066-.052-.144-.032-.233.06-.089.09-.186.286-.29.583zm-9.169 8.76c-.071-.388-.117-.886-.139-1.496-.022-.609-.005-1.288.053-2.038.057-.748.155-1.539.294-2.371.139-.833.333-1.662.583-2.489.25-.826.557-1.63.921-2.41.365-.78.797-1.483 1.298-2.113.348-.428.708-.728 1.08-.9.373-.171.742-.243 1.109-.215.366.029.72.14 1.06.335.342.195.662.436.962.725.247.254.405.495.473.722.069.228.08.453.039.674-.043.222-.122.458-.236.708-.113.25-.229.523-.346.82-.453 1.176-.823 2.184-1.108 3.024-.286.84-.505 1.573-.658 2.197-.153.623-.258 1.161-.316 1.614-.058.453-.087.88-.085 1.28-.016.847.034 1.619.147 2.313.113.694.283 1.227.507 1.6.226.372.496.543.81.512.314-.03.664-.338 1.052-.926.541-.834.963-1.735 1.264-2.702.3-.968.52-1.976.66-3.025-.501.02-.902-.117-1.202-.414-.299-.296-.517-.677-.653-1.14-.135-.464-.196-.963-.18-1.499.015-.535.08-1.04.194-1.513.072-.236.153-.475.246-.718s.205-.461.335-.654c.13-.193.285-.349.459-.467.175-.118.386-.17.636-.157.54.03.923.223 1.148.58.227.356.363.796.412 1.319.048.522.044 1.094-.01 1.715-.056.621-.102 1.203-.138 1.745.275.047.569-.048.884-.287.315-.238.618-.514.91-.826.29-.312.547-.614.768-.906.22-.292.375-.467.462-.527.111.006.247.059.406.155.16.097.237.21.228.336-.26.355-.529.7-.81 1.036-.278.337-.573.649-.884.936-.31.286-.64.532-.987.737-.347.205-.718.345-1.111.419-.17 1.095-.43 2.169-.778 3.222-.349 1.053-.814 2.1-1.398 3.14-.347.62-.726 1.16-1.138 1.616-.413.458-.859.793-1.339 1.007-.48.214-1.005.285-1.576.213-.572-.072-1.19-.318-1.857-.739-.612-.401-1.132-.942-1.559-1.622-.426-.68-.724-1.528-.892-2.546z" transform="translate(-715 -6047) translate(715 6047)"/>
                <path fill="#19AC9D" d="M89.2 33.124c.04-.436.103-.89.187-1.365.084-.474.175-1.009.274-1.603.098-.595.194-1.26.288-1.993.093-.733.172-1.585.234-2.555.255-.212.56-.316.916-.312.355.005.702.106 1.04.304.335.198.626.486.87.866.245.379.383.846.415 1.4-.117.772-.25 1.596-.4 2.472-.15.876-.291 1.777-.423 2.703-.134.926-.243 1.848-.328 2.768-.086.92-.122 1.804-.109 2.648-.035.761-.01 1.274.073 1.539.084.265.205.368.363.313.158-.056.34-.232.548-.529.207-.296.41-.629.608-.999s.382-.728.552-1.076c.17-.347.3-.608.392-.781.448-.9.82-1.738 1.118-2.516.298-.778.542-1.503.733-2.173.138-.902.25-1.654.335-2.257.086-.605.158-1.112.218-1.522.06-.41.105-.756.137-1.04l.092-.81c.14-.105.318-.192.53-.26.213-.07.427-.11.643-.122.215-.012.423.004.622.048.198.044.355.118.47.223.407.331.655.987.74 1.966-.137.885-.292 1.842-.465 2.87-.173 1.03-.33 2.075-.472 3.138-.142 1.064-.242 2.113-.301 3.148-.06 1.036-.044 2.002.046 2.9.098.363.25.445.459.246.207-.199.452-.526.737-.98.29-.551.608-1.158.952-1.82.344-.661.69-1.34 1.037-2.034.346-.694.685-1.376 1.016-2.047.332-.67.63-1.29.895-1.86.084-.044.169-.063.256-.058.087.005.17.03.247.075.077.046.137.11.179.193.042.084.052.182.032.294-.235.522-.505 1.116-.809 1.78-.304.664-.627 1.352-.968 2.062-.34.711-.692 1.433-1.055 2.167-.362.733-.72 1.431-1.07 2.093-.368.709-.714 1.342-1.038 1.9-.325.557-.693 1.002-1.103 1.336-.696.592-1.31.533-1.843-.18-.282-.422-.505-.913-.671-1.475-.166-.562-.29-1.157-.37-1.787-.08-.63-.127-1.273-.139-1.932-.012-.658-.004-1.302.023-1.934-.372.774-.757 1.6-1.156 2.478-.398.878-.83 1.692-1.294 2.445-.27.439-.596.814-.979 1.124-.382.31-.772.515-1.167.614-.396.1-.78.065-1.152-.103-.373-.168-.69-.51-.952-1.029-.273-.568-.438-1.26-.493-2.074-.056-.815-.056-1.65-.001-2.508.055-.857.134-1.676.237-2.458.104-.78.185-1.422.243-1.921" transform="translate(-715 -6047) translate(715 6047)"/>
                <g transform="translate(-715 -6047) translate(715 6047) translate(102.251 22.585)">
                    <mask id="o3t3kgzg2b" fill="#fff">
                        <use xlink:href="#e5vtk7dhpa"/>
                    </mask>
                    <path fill="#19AC9D" d="M3.45 8.785c.136-.185.258-.468.366-.847.108-.38.194-.8.26-1.263.064-.461.106-.936.125-1.426.018-.488.006-.939-.035-1.351-.042-.412-.116-.754-.222-1.024-.106-.271-.248-.42-.426-.446-.255.308-.483.777-.683 1.408-.2.631-.33 1.283-.388 1.954-.059.67-.017 1.292.125 1.862.141.57.434.948.877 1.133zm.929 14.098c-.12-.472-.194-1.022-.222-1.65-.028-.628-.028-1.295-.002-2 .026-.706.08-1.43.164-2.171.083-.742.173-1.473.27-2.19.095-.718.192-1.403.29-2.056.099-.653.187-1.242.263-1.768-.865.337-1.607.408-2.23.213-.621-.195-1.135-.561-1.541-1.098C.965 9.626.666 8.972.476 8.198.286 7.425.194 6.624.2 5.797c.007-.826.108-1.628.304-2.404.197-.776.477-1.427.844-1.953.337-.51.71-.892 1.12-1.142.41-.25.806-.333 1.187-.247.38.085.71.357.991.814.28.458.46 1.13.54 2.018.045.565.058 1.144.04 1.737-.019.593-.064 1.173-.136 1.739-.072.566-.166 1.095-.281 1.587-.116.491-.247.918-.395 1.279.12.07.284.088.493.051.21-.037.434-.092.673-.167.24-.075.484-.158.731-.249.248-.09.476-.154.686-.19.376-.06.685-.03.925.087.24.118.426.301.554.55.129.247.212.553.25.917.038.364.042.761.014 1.193-.013.192-.052.523-.117.993l-.233 1.638-.286 1.983c-.102.702-.195 1.372-.278 2.01-.09.716-.157 1.311-.201 1.782-.046.472-.042.79.01.953.05.164.158.153.322-.03.164-.184.41-.572.74-1.164.33-.608.708-1.317 1.134-2.129.426-.811.85-1.627 1.27-2.447.42-.82.816-1.6 1.19-2.343.373-.742.672-1.347.896-1.817.17-.07.338-.058.505.04.165.098.227.258.185.48-.192.408-.449.948-.77 1.62-.32.673-.668 1.396-1.044 2.17-.375.775-.759 1.56-1.15 2.358-.39.797-.76 1.531-1.108 2.202-.432.908-.81 1.658-1.132 2.25-.322.593-.606 1.067-.85 1.422-.307.465-.638.788-.995.969-.357.181-.696.238-1.016.172-.32-.066-.608-.242-.865-.53-.257-.287-.446-.659-.568-1.116zM29.994 25.53c-.058.72-.134 1.471-.226 2.251-.093.78-.212 1.549-.356 2.306-.145.756-.321 1.478-.53 2.165-.208.686-.457 1.289-.746 1.807-.29.518-.628.928-1.016 1.231-.388.302-.831.454-1.329.454-.347 0-.564-.143-.65-.428-.088-.285-.108-.617-.062-.995s.125-.748.235-1.109c.11-.36.182-.623.217-.786.301-1.199.5-2.433.599-3.702.098-1.268.105-2.534.018-3.797-.087-1.263-.261-2.503-.521-3.72-.26-1.216-.605-2.377-1.034-3.483-.197-.407-.379-.806-.547-1.196-.168-.39-.332-.765-.495-1.126-.185-.465-.257-.873-.216-1.223.04-.349.167-.64.382-.873.213-.232.497-.404.85-.515.353-.11.75-.16 1.19-.148.833.117 1.533.425 2.1.925.568.5 1.022 1.098 1.364 1.79.341.693.587 1.432.738 2.217.15.786.231 1.523.243 2.21.567-.303 1.025-.612 1.372-.926.95-.884 1.638-1.795 2.066-2.732.428-.937.645-1.852.651-2.742.006-.89-.17-1.734-.53-2.532-.358-.797-.85-1.501-1.475-2.113-.625-.61-1.357-1.1-2.197-1.466-.84-.367-1.73-.568-2.674-.603-.944-.035-1.913.123-2.909.472-.995.349-1.968.937-2.917 1.763-.706.629-1.377 1.296-2.014 2-.637.704-1.224 1.405-1.763 2.104-.538.698-1.021 1.368-1.45 2.007-.428.64-.787 1.209-1.076 1.703-.29.495-.51.888-.66 1.179-.15.29-.214.436-.191.436-.185 0-.315-.046-.39-.14-.076-.093-.122-.2-.14-.322-.017-.123-.02-.248-.008-.376.011-.128.017-.233.017-.314 0-.093.098-.36.295-.804.197-.442.47-.986.816-1.632.348-.646.765-1.35 1.25-2.113.487-.762 1.02-1.51 1.598-2.244.556-.674 1.155-1.344 1.797-2.008.643-.663 1.314-1.292 2.015-1.885.7-.594 1.427-1.144 2.179-1.65.753-.507 1.516-.94 2.292-1.301.764-.35 1.525-.623 2.284-.82.757-.198 1.525-.298 2.3-.298 1.4 0 2.608.239 3.62.716 1.014.478 1.841 1.115 2.484 1.912.643.798 1.106 1.711 1.39 2.742.283 1.03.399 2.1.347 3.213-.053 1.111-.267 2.217-.643 3.317s-.903 2.119-1.58 3.056c-.677.937-1.502 1.749-2.475 2.435-.972.687-2.078 1.17-3.316 1.45 1.018 1.827 2.008 3.498 2.97 5.01.96 1.514 1.993 2.862 3.099 4.043 1.105 1.182 2.335 2.189 3.69 3.02 1.354.833 2.928 1.482 4.723 1.948.729.198 1.224.489 1.484.873s.356.8.287 1.248c-.07.448-.269.896-.599 1.345-.33.448-.727.83-1.19 1.143-.243.175-.506.3-.79.376-.283.075-.564.124-.842.148-.278.023-.544.03-.798.018-.255-.012-.476-.018-.66-.018-.672-.035-1.355-.21-2.05-.524-.694-.314-1.374-.733-2.04-1.257-.666-.524-1.317-1.129-1.953-1.816-.637-.687-1.24-1.42-1.806-2.2-.567-.78-1.092-1.582-1.571-2.41-.481-.826-.898-1.638-1.251-2.435-.353-.797-.642-1.56-.868-2.287-.226-.728-.362-1.383-.408-1.965" mask="url(#o3t3kgzg2b)"/>
                </g>
                <path fill="#19AC9D" d="M144.447 37.277c.1.258.109.51.028.757-.08.246-.214.463-.4.651-.187.188-.41.332-.671.432-.26.1-.518.129-.773.088-.254-.042-.488-.165-.698-.37-.212-.205-.367-.52-.466-.942-.186-.81-.24-1.411-.159-1.805.08-.393.233-.648.457-.765.198-.106.431-.118.698-.036.267.082.531.223.792.423.26.2.5.437.717.713.217.275.376.56.475.854zm-4.154 9.379c.013-.317.044-.649.093-.995.05-.346.103-.736.159-1.171.055-.434.105-.918.149-1.452.043-.534.065-1.154.065-1.858.223-.164.5-.252.829-.264.329-.011.655.047.978.176.323.13.608.326.856.59.249.264.404.596.466.995-.074.646-.161 1.344-.26 2.095-.1.751-.184 1.514-.252 2.289-.068.774-.1 1.538-.093 2.289.006.75.077 1.45.214 2.095.112.258.258.311.438.158.18-.152.388-.399.624-.74.236-.41.494-.862.773-1.355.28-.493.559-.997.838-1.514.28-.516.552-1.024.82-1.523.267-.5.506-.96.717-1.382.074-.036.152-.053.233-.053.08 0 .158.015.232.044.075.03.134.073.178.132.043.06.058.13.046.211-.186.387-.4.828-.643 1.321-.242.493-.5 1.003-.773 1.532-.273.528-.556 1.065-.847 1.61-.292.546-.58 1.066-.866 1.559-.298.528-.58 1-.848 1.417-.267.417-.58.754-.94 1.013-.61.457-1.18.44-1.714-.053-.398-.423-.702-.94-.913-1.55-.211-.61-.363-1.247-.456-1.91-.093-.663-.14-1.32-.14-1.972 0-.651.013-1.23.037-1.734z" transform="translate(-715 -6047) translate(715 6047)"/>
                <path fill="#19AC9D" d="M152.18 45.49c.023-.427.048-.854.076-1.28.029-.427.06-.848.093-1.263-.247-.484-.512-.746-.793-.786-.282-.04-.563.08-.845.362-.28.283-.548.692-.801 1.228-.254.536-.473 1.139-.659 1.808-.186.668-.326 1.366-.422 2.092-.096.726-.126 1.424-.093 2.092.045.542.14.931.287 1.168.146.236.324.363.532.38.208.017.433-.046.675-.19.243-.144.478-.332.71-.562.23-.23.441-.478.633-.744.19-.265.343-.501.455-.709-.022-.622-.01-1.236.034-1.842.045-.605.085-1.19.119-1.755zm3.664-10.29c-.067 1.753-.208 3.47-.421 5.153-.214 1.684-.389 3.361-.524 5.032-.034.589-.085 1.24-.152 1.955-.068.714-.09 1.435-.068 2.161.011.484.048.828.11 1.03.062.2.143.302.245.302.101 0 .214-.078.337-.234.124-.155.26-.349.406-.579.214-.403.447-.847.7-1.331.254-.485.507-.98.76-1.488l.744-1.495c.241-.49.458-.943.65-1.358.067-.035.137-.052.21-.052.073 0 .144.015.211.043.068.03.12.072.16.13.04.058.054.127.043.208-.169.38-.363.812-.582 1.297-.22.484-.454.985-.701 1.504-.248.519-.504 1.046-.769 1.582-.264.536-.526 1.047-.785 1.53-.27.52-.526.983-.768 1.393-.242.409-.526.74-.852.994-.552.45-1.07.432-1.554-.052-.349-.369-.602-.792-.76-1.271-.157-.478-.275-.965-.354-1.461-.304.392-.603.778-.895 1.158-.293.38-.605.701-.937.96-.332.26-.698.432-1.098.52-.399.086-.858.031-1.375-.165-.473-.23-.864-.568-1.174-1.012-.31-.444-.543-.95-.7-1.522-.158-.57-.245-1.181-.262-1.833-.017-.65.03-1.306.143-1.963.113-.656.279-1.29.498-1.902.22-.61.487-1.158.802-1.643.315-.483.673-.887 1.073-1.21.399-.323.835-.519 1.308-.588.27-.034.551-.043.844-.025.292.017.574.06.844.129.27.07.515.167.735.294.22.127.391.282.515.467.09-1.083.19-2.139.303-3.165.113-1.025.214-2.063.305-3.112l.135-1.505c.022-.633.143-1.066.363-1.296.219-.232.492-.306.819-.226.337.081.605.202.802.364.196.161.345.357.447.588.101.23.166.49.194.778.028.288.036.593.025.916z" transform="translate(-715 -6047) translate(715 6047)"/>
                <g transform="translate(-715 -6047) translate(715 6047)">
                    <mask id="vgokpn1ohd" fill="#fff">
                        <use xlink:href="#9nwcn4bnxc"/>
                    </mask>
                    <path fill="#19AC9D" d="M161.846 45.695c.391-.102.794-.233 1.208-.392.414-.16.788-.364 1.121-.615.334-.25.613-.551.837-.904.224-.353.348-.774.37-1.263.047-.693-.28-1.137-.982-1.33-.184-.046-.388.05-.613.29-.224.238-.451.568-.681.989-.23.42-.455.913-.673 1.476-.219.563-.414 1.146-.587 1.75zm3.796-1.57c-.184.33-.42.623-.707.879-.288.256-.61.486-.966.691-.357.205-.737.378-1.14.52-.402.143-.805.26-1.207.35-.138.615-.247 1.218-.328 1.809-.08.592-.115 1.126-.103 1.604.011.478.08.87.207 1.178.126.306.333.477.621.511.39.058.788-.019 1.19-.23.403-.21.8-.509 1.19-.896.392-.387.769-.833 1.131-1.34.362-.505.704-1.026 1.026-1.56.322-.535.618-1.061.889-1.58.27-.517.503-.977.699-1.381.195-.404.353-.726.474-.964.121-.24.192-.347.215-.325.127-.01.234.029.32.12.086.09.106.25.06.478-.104.261-.25.6-.44 1.015-.19.415-.411.87-.664 1.365-.253.495-.532 1.013-.837 1.553-.305.54-.62 1.064-.948 1.57-.328.506-.665.978-1.01 1.416-.345.438-.679.8-1 1.083-.76.649-1.493 1.065-2.2 1.246-.707.182-1.355.163-1.94-.06-.587-.221-1.088-.634-1.502-1.237-.414-.602-.707-1.359-.88-2.27-.138-.761-.17-1.552-.095-2.37.075-.82.233-1.62.475-2.398.241-.78.554-1.516.94-2.21.385-.694.814-1.297 1.285-1.81.472-.51.978-.903 1.518-1.177.541-.272 1.088-.38 1.64-.324.528.058.989.245 1.38.563.39.32.684.706.88 1.161.195.455.284.95.267 1.484-.017.535-.164 1.047-.44 1.536z" mask="url(#vgokpn1ohd)"/>
                    <path fill="#19AC9D" d="M.191 27.586c33.16-23.873 90.59-46.496 146.703-2.533 4.282 3.354 9.725 5.282 15.393 5.41l.224.005c22.776.673 22.263 25.86 4.25 28.758-.59.095-1.184.142-1.782.175-2.477.139-8.962.352-13.053-.877-.26-.079-.198-.428.077-.426 4.846.029 12.794.046 16.737-2.374 5.162-3.303 11.13-18.023-4.431-22.357-1.17-.325-2.13-.59-3.344-.74-1.203-.149-4.15-.57-6.778-1.065-4.442-.836-8.642-2.493-12.366-4.834C126.695 17.218 73.909-9.23.749 28.32c-.531.273-1.035-.39-.558-.734" mask="url(#vgokpn1ohd)"/>
                </g>
                <path fill="#19AC9D" d="M53.778 49.715c-.296-.538-.538-1.087-.725-1.648-.187-.56-.352-1.137-.496-1.733-.034-.12-.06-.236-.08-.347l-.06-.334c-.145-.812-.265-1.662-.36-2.55-.096-.887-.178-1.783-.245-2.687-.067-.903-.124-1.8-.17-2.69-.046-.888-.094-1.752-.143-2.59l-.104-1.32c-.026-.282-.045-.565-.058-.848-.013-.284-.044-.565-.093-.843-.04-.222-.136-.428-.288-.616-.153-.189-.34-.346-.562-.473-.223-.127-.46-.217-.714-.27-.252-.055-.495-.064-.726-.03-.316.047-.535.168-.657.363-.121.196-.157.432-.108.71.074.412.125.824.155 1.236.03.413.057.828.082 1.247-.899.145-1.757.302-2.577.47-.819.167-1.622.36-2.407.58-.785.22-1.57.474-2.356.762-.342.126-.688.264-1.036.412-.197.083-.287.296-.205.479.085.189.32.276.527.2.192-.07.383-.136.574-.196.485-.152.984-.295 1.497-.429.75-.203 1.495-.376 2.23-.52.737-.144 1.488-.273 2.255-.387l.776-.116c.261-.039.52-.072.778-.099.109 1.663.212 3.312.31 4.947.097 1.635.293 3.276.587 4.922l.065.367c.022.123.05.244.084.365.057.254.149.557.274.91.125.352.28.717.467 1.095.186.377.4.757.643 1.137.242.381.51.726.803 1.037.371.401.754.715 1.15.942.397.226.726.335.986.324.26-.01.406-.155.438-.433.032-.28-.139-.728-.511-1.346" transform="translate(-715 -6047) translate(715 6047)"/>
            </g>
        </g>
    </g>
</svg>
