<?xml version="1.0" encoding="UTF-8"?>
<svg width="26px" height="26px" viewBox="0 0 26 26" version="1.1" xmlns="http://www.w3.org/2000/svg" xmlns:xlink="http://www.w3.org/1999/xlink">
    <!-- Generator: Sketch 60.1 (88133) - https://sketch.com -->
    <title>spotify</title>
    <desc>Created with Sketch.</desc>
    <g id="DONE-" stroke="none" stroke-width="1" fill="none" fill-rule="evenodd">
        <g id="StartupSmart" transform="translate(-1237.000000, -5868.000000)" fill="#FFFFFF" fill-rule="nonzero">
            <g id="spotify" transform="translate(1237.000000, 5868.000000)">
                <path d="M12.8,25.6 C19.8656,25.6 25.6,19.8656 25.6,12.8 C25.6,5.7344 19.8656,-7.28306304e-13 12.8,-7.28306304e-13 C5.7344,-7.28306304e-13 2.9096725e-12,5.7344 2.9096725e-12,12.8 C2.9096725e-12,19.8656 5.7344,25.6 12.8,25.6 Z M17.9968,18.8330667 L17.9968,18.8341333 C17.136,18.8341333 14.4170667,15.8176 6.77546667,17.3834667 C6.57386667,17.4357333 6.3104,17.5178667 6.16106667,17.5178667 C5.18506667,17.5178667 4.9984,16.0576 6.048,15.8346667 C10.2752,14.9013333 14.5952,14.9834667 18.2794667,17.1872 C19.1584,17.7482667 18.7850667,18.8330667 17.9968,18.8330667 L17.9968,18.8330667 Z M19.3866667,15.4485333 C19.2661333,15.4165333 19.3013333,15.5221333 18.7498667,15.232 C15.5232,13.3226667 10.7146667,12.5525333 6.4352,13.7141333 C6.18773333,13.7813333 6.05333333,13.8485333 5.8208,13.8485333 C4.6784,13.8485333 4.37546667,12.1301333 5.62026667,11.7792 C10.6506667,10.3658667 16.0469333,11.1904 19.8037333,13.4250667 C20.2218667,13.6725333 20.3872,13.9936 20.3872,14.4416 C20.3818667,14.9984 19.9488,15.4485333 19.3866667,15.4485333 L19.3866667,15.4485333 Z M4.8512,7.46453333 C9.67573333,6.05226667 16.9770667,6.49813333 21.5168,9.14773333 C22.6805333,9.81866667 22.2229333,11.5157333 20.9856,11.5157333 L20.9845333,11.5146667 C20.7157333,11.5146667 20.5504,11.4474667 20.3178667,11.3130667 C16.6453333,9.12 10.0736,8.59413333 5.82186667,9.78133333 C5.6352,9.83253333 5.40266667,9.91466667 5.1552,9.91466667 C4.4736,9.91466667 3.95306667,9.3824 3.95306667,8.69653333 C3.95306667,7.99573333 4.3872,7.59893333 4.8512,7.46453333 L4.8512,7.46453333 Z" id="Shape"></path>
            </g>
        </g>
    </g>
</svg>